<svg version="1.1" id="Layer_1" xmlns="http://www.w3.org/2000/svg" xmlns:xlink="http://www.w3.org/1999/xlink" x="0px" y="0px"
	 width="100%" viewBox="0 0 723 915" enable-background="new 0 0 723 915" xml:space="preserve">
<path fill="#FFFFFF" opacity="1.000000" stroke="none" 
	d="
M519.000000,916.000000 
	C346.357910,916.000000 173.715820,916.000000 1.036865,916.000000 
	C1.036865,611.067993 1.036865,306.135986 1.036865,1.101984 
	C241.897659,1.101984 482.795380,1.101984 724.000000,1.101984 
	C724.000000,256.361298 724.000000,511.722687 723.591187,767.374878 
	C723.115845,760.506531 723.982910,753.188721 722.798096,746.219727 
	C719.882568,729.070007 709.472351,716.080017 695.952087,706.238037 
	C684.456665,697.870117 670.978943,693.446838 656.492981,691.829651 
	C638.639893,689.836609 621.097900,690.908813 603.955383,695.669250 
	C584.505493,701.070312 565.342224,707.502930 546.053528,713.484680 
	C532.905884,717.562012 520.061584,716.275513 507.890228,710.307617 
	C492.803070,702.910156 482.001221,690.318176 472.291077,677.268066 
	C460.779541,661.796936 454.034271,643.780762 450.209351,624.884094 
	C449.484619,621.303589 447.120728,616.953918 451.976898,613.336304 
	C459.045441,608.070496 465.986542,602.457092 472.112640,596.147827 
	C479.671448,588.362915 485.885712,579.310791 488.916992,568.739563 
	C491.481354,559.796448 493.431122,550.625854 494.919403,541.437134 
	C497.357910,526.381653 496.238068,511.370819 493.142731,496.457794 
	C489.609619,479.435547 481.246185,464.679291 471.854645,450.400330 
	C468.397980,445.144806 466.072388,440.417389 466.585083,433.208069 
	C467.796356,416.173981 468.258179,398.822540 460.717072,382.239471 
	C474.899017,374.414795 488.568542,366.177155 498.294800,353.120880 
	C505.430145,343.542480 512.900208,334.081299 518.831787,323.768799 
	C528.023010,307.789124 531.172485,289.806396 534.205322,271.761261 
	C536.531128,257.922302 536.212097,244.213364 533.638062,230.797592 
	C531.111084,217.626617 526.425110,204.854385 522.400330,191.996780 
	C521.354919,188.657043 520.534790,185.955460 523.862610,183.492264 
	C524.636902,182.919144 524.751587,181.454956 525.169800,180.400742 
	C524.849121,180.166183 524.528442,179.931610 524.207703,179.697037 
	C522.627014,180.487778 521.046265,181.278534 519.287170,182.158524 
	C516.399963,177.126770 513.831543,172.303284 510.934326,167.686127 
	C506.983795,161.390503 504.450806,155.178253 509.841156,148.378967 
	C510.219574,147.901627 509.890656,146.863525 509.890656,145.072800 
	C506.748260,147.405884 504.323730,149.205978 501.836884,151.052338 
	C495.381836,142.508408 488.957855,134.005569 482.620209,125.617058 
	C483.445648,121.867355 484.281982,118.068230 485.118317,114.269104 
	C484.646301,114.111153 484.174316,113.953209 483.702332,113.795258 
	C481.867340,116.288750 480.032349,118.782249 478.563782,120.777832 
	C467.928986,113.183060 457.703339,105.880478 447.125641,98.326492 
	C447.789642,95.754768 448.707336,92.350060 449.546234,88.926041 
	C453.614319,72.321007 455.699097,55.640041 452.031250,38.622684 
	C449.741882,28.000786 444.917969,18.519085 436.832916,11.624116 
	C423.913910,0.606781 408.139923,-0.211848 392.457886,3.409066 
	C374.236450,7.616308 359.019196,17.914917 345.833679,30.845299 
	C333.720917,42.723679 324.206482,56.649647 316.969574,72.065498 
	C316.264404,73.567551 315.218842,74.909767 313.936432,76.956337 
	C312.277435,74.251625 311.213745,72.289993 309.939270,70.476494 
	C301.497650,58.464710 291.045624,48.413204 279.718231,39.151218 
	C266.105682,28.020777 251.382248,19.825909 233.435211,17.847879 
	C220.389023,16.409994 207.343994,16.031900 194.762665,19.205538 
	C174.828110,24.234026 163.237091,34.383087 160.363586,54.286572 
	C157.952301,70.988396 160.870255,87.815758 166.996201,103.785141 
	C170.260605,112.294930 173.700546,120.737381 176.797958,128.546417 
	C173.002991,132.674774 169.483765,136.500214 165.968018,140.328873 
	C163.796478,142.693695 162.082031,146.216263 158.261185,141.925735 
	C156.581711,140.039810 153.958603,138.994232 150.442764,136.707977 
	C151.203995,140.657547 150.946457,143.519714 152.229843,145.216217 
	C156.597839,150.990295 154.964401,155.608734 150.425858,160.081131 
	C150.309662,160.195618 150.230850,160.351288 150.147079,160.495026 
	C148.370193,163.545044 147.244217,168.110138 144.639511,169.226913 
	C141.962585,170.374634 137.842316,168.156006 133.049362,167.131805 
	C134.569305,169.261566 135.733353,170.602737 136.563690,172.125839 
	C137.730896,174.266907 140.056976,177.093246 139.440460,178.669373 
	C136.190201,186.978836 132.171005,194.987534 128.443649,203.046478 
	C126.478500,202.666870 124.835373,202.349472 123.192253,202.032089 
	C128.473770,208.245865 124.082848,213.924225 122.966118,219.605774 
	C122.689598,221.012604 122.062218,222.346573 121.683937,223.737900 
	C117.970200,237.397186 114.170692,251.050659 115.008850,265.432434 
	C115.630440,276.098145 115.951317,286.800354 117.097511,297.411621 
	C118.485077,310.257477 121.640526,322.822296 127.245888,334.481934 
	C140.554749,362.165497 160.816711,383.072418 189.358475,396.448669 
	C186.807648,399.546448 184.142990,402.758759 181.504227,405.992188 
	C176.469193,412.161804 172.512161,419.369354 173.287094,427.133179 
	C174.400269,438.285400 177.567856,449.223877 179.586212,460.303162 
	C179.914505,462.105225 179.278198,464.417969 178.329391,466.055176 
	C175.425919,471.065277 171.625534,475.607117 169.128159,480.790771 
	C163.013092,493.483551 159.053085,506.783417 157.819778,521.005676 
	C156.664062,534.333435 156.162460,547.447754 159.988174,560.435486 
	C163.968201,573.947083 170.607986,585.870422 179.886047,596.553284 
	C189.410782,607.520203 199.919830,616.797852 213.955154,621.486145 
	C216.576111,622.361572 217.961273,624.118713 218.134537,627.340759 
	C218.411957,632.499817 219.499313,637.622070 220.350449,642.742188 
	C222.872513,657.913879 225.484818,673.070679 227.985703,688.245850 
	C229.488693,697.365845 230.423645,706.606018 232.467758,715.598145 
	C233.384689,719.631775 232.114059,720.227905 228.941025,721.069336 
	C222.288483,722.833496 215.761993,725.067810 209.137421,726.945740 
	C206.986740,727.555420 204.648392,728.101868 202.472549,727.889954 
	C198.795624,727.531921 195.203796,726.377563 191.533844,725.856140 
	C179.629028,724.164612 167.731339,721.560852 155.781769,721.259949 
	C140.142532,720.865906 124.435669,722.027588 108.796951,723.093201 
	C95.832916,723.976624 83.503593,727.834351 71.897171,733.637878 
	C58.751671,740.210938 47.429626,749.239807 38.597763,761.017029 
	C32.441528,769.226379 26.545153,777.766663 24.425673,788.104248 
	C22.966187,795.222839 22.072340,802.455688 20.732656,809.601257 
	C19.636425,815.448303 17.353458,821.216553 17.188604,827.064575 
	C16.850523,839.057678 19.937162,850.384094 27.664991,860.801697 
	C24.435926,861.271851 21.845142,861.341858 19.449961,862.062256 
	C14.586766,863.524841 9.630026,864.948425 5.144970,867.237000 
	C3.726055,867.960938 3.477971,871.351685 3.135997,873.589539 
	C3.032153,874.269043 4.298522,875.708191 5.127849,875.880127 
	C7.987107,876.472656 10.934093,876.980591 13.841379,876.948669 
	C35.593571,876.709595 57.345493,876.390930 79.093712,875.920959 
	C81.570274,875.867493 83.993011,874.464539 86.497223,874.173340 
	C88.365791,873.956116 90.728905,873.900513 92.179893,874.840759 
	C102.414673,881.472717 114.118896,882.867065 125.162788,880.487671 
	C138.194214,877.680115 150.559082,871.806030 163.242233,867.344666 
	C171.386856,864.479614 179.520523,861.554382 187.778748,859.050781 
	C194.218826,857.098389 201.099579,856.413696 207.328873,853.993103 
	C218.076050,849.816895 226.045685,842.371094 230.434433,831.342590 
	C231.029648,829.846802 233.374435,828.438049 235.119934,828.109741 
	C245.138351,826.224915 255.222580,824.691284 265.279907,823.010986 
	C269.905762,822.238159 274.322754,821.704407 278.160919,825.582031 
	C284.851379,832.341309 293.473419,835.608826 302.478088,837.690979 
	C308.615540,839.110107 315.119720,839.076294 321.156555,840.772156 
	C338.899872,845.756592 356.404846,851.596191 374.173096,856.483032 
	C386.426483,859.853210 398.876770,862.701538 411.401794,864.821716 
	C419.738251,866.232849 428.632446,865.421021 431.618469,876.057678 
	C431.814514,876.756042 432.756165,877.238647 433.335236,877.836853 
	C441.496613,886.267883 452.190369,888.285645 463.154083,890.096924 
	C473.449249,891.797729 483.668152,894.197937 492.247955,900.735046 
	C495.234314,903.010498 497.706390,906.128723 500.947418,907.865234 
	C506.751465,910.975220 512.960327,913.329712 519.000000,916.000000 
z"/>
<path fill="#000000" opacity="1.000000" stroke="none" 
	d="
M519.463196,916.000000 
	C512.960327,913.329712 506.751465,910.975220 500.947418,907.865234 
	C497.706390,906.128723 495.234314,903.010498 492.247955,900.735046 
	C483.668152,894.197937 473.449249,891.797729 463.154083,890.096924 
	C452.190369,888.285645 441.496613,886.267883 433.335236,877.836853 
	C432.756165,877.238647 431.814514,876.756042 431.618469,876.057678 
	C428.632446,865.421021 419.738251,866.232849 411.401794,864.821716 
	C398.876770,862.701538 386.426483,859.853210 374.173096,856.483032 
	C356.404846,851.596191 338.899872,845.756592 321.156555,840.772156 
	C315.119720,839.076294 308.615540,839.110107 302.478088,837.690979 
	C293.473419,835.608826 284.851379,832.341309 278.160919,825.582031 
	C274.322754,821.704407 269.905762,822.238159 265.279907,823.010986 
	C255.222580,824.691284 245.138351,826.224915 235.119934,828.109741 
	C233.374435,828.438049 231.029648,829.846802 230.434433,831.342590 
	C226.045685,842.371094 218.076050,849.816895 207.328873,853.993103 
	C201.099579,856.413696 194.218826,857.098389 187.778748,859.050781 
	C179.520523,861.554382 171.386856,864.479614 163.242233,867.344666 
	C150.559082,871.806030 138.194214,877.680115 125.162788,880.487671 
	C114.118896,882.867065 102.414673,881.472717 92.179893,874.840759 
	C90.728905,873.900513 88.365791,873.956116 86.497223,874.173340 
	C83.993011,874.464539 81.570274,875.867493 79.093712,875.920959 
	C57.345493,876.390930 35.593571,876.709595 13.841379,876.948669 
	C10.934093,876.980591 7.987107,876.472656 5.127849,875.880127 
	C4.298522,875.708191 3.032153,874.269043 3.135997,873.589539 
	C3.477971,871.351685 3.726055,867.960938 5.144970,867.237000 
	C9.630026,864.948425 14.586766,863.524841 19.449961,862.062256 
	C21.845142,861.341858 24.435926,861.271851 27.664991,860.801697 
	C19.937162,850.384094 16.850523,839.057678 17.188604,827.064575 
	C17.353458,821.216553 19.636425,815.448303 20.732656,809.601257 
	C22.072340,802.455688 22.966187,795.222839 24.425673,788.104248 
	C26.545153,777.766663 32.441528,769.226379 38.597763,761.017029 
	C47.429626,749.239807 58.751671,740.210938 71.897171,733.637878 
	C83.503593,727.834351 95.832916,723.976624 108.796951,723.093201 
	C124.435669,722.027588 140.142532,720.865906 155.781769,721.259949 
	C167.731339,721.560852 179.629028,724.164612 191.533844,725.856140 
	C195.203796,726.377563 198.795624,727.531921 202.472549,727.889954 
	C204.648392,728.101868 206.986740,727.555420 209.137421,726.945740 
	C215.761993,725.067810 222.288483,722.833496 228.941025,721.069336 
	C232.114059,720.227905 233.384689,719.631775 232.467758,715.598145 
	C230.423645,706.606018 229.488693,697.365845 227.985703,688.245850 
	C225.484818,673.070679 222.872513,657.913879 220.350449,642.742188 
	C219.499313,637.622070 218.411957,632.499817 218.134537,627.340759 
	C217.961273,624.118713 216.576111,622.361572 213.955154,621.486145 
	C199.919830,616.797852 189.410782,607.520203 179.886047,596.553284 
	C170.607986,585.870422 163.968201,573.947083 159.988174,560.435486 
	C156.162460,547.447754 156.664062,534.333435 157.819778,521.005676 
	C159.053085,506.783417 163.013092,493.483551 169.128159,480.790771 
	C171.625534,475.607117 175.425919,471.065277 178.329391,466.055176 
	C179.278198,464.417969 179.914505,462.105225 179.586212,460.303162 
	C177.567856,449.223877 174.400269,438.285400 173.287094,427.133179 
	C172.512161,419.369354 176.469193,412.161804 181.504227,405.992188 
	C184.142990,402.758759 186.807648,399.546448 189.358475,396.448669 
	C160.816711,383.072418 140.554749,362.165497 127.245888,334.481934 
	C121.640526,322.822296 118.485077,310.257477 117.097511,297.411621 
	C115.951317,286.800354 115.630440,276.098145 115.008850,265.432434 
	C114.170692,251.050659 117.970200,237.397186 121.683937,223.737900 
	C122.062218,222.346573 122.689598,221.012604 122.966118,219.605774 
	C124.082848,213.924225 128.473770,208.245865 123.192253,202.032089 
	C124.835373,202.349472 126.478500,202.666870 128.443649,203.046478 
	C132.171005,194.987534 136.190201,186.978836 139.440460,178.669373 
	C140.056976,177.093246 137.730896,174.266907 136.563690,172.125839 
	C135.733353,170.602737 134.569305,169.261566 133.049362,167.131805 
	C137.842316,168.156006 141.962585,170.374634 144.639511,169.226913 
	C147.244217,168.110138 148.370193,163.545044 150.147079,160.495026 
	C150.230850,160.351288 150.309662,160.195618 150.425858,160.081131 
	C154.964401,155.608734 156.597839,150.990295 152.229843,145.216217 
	C150.946457,143.519714 151.203995,140.657547 150.442764,136.707977 
	C153.958603,138.994232 156.581711,140.039810 158.261185,141.925735 
	C162.082031,146.216263 163.796478,142.693695 165.968018,140.328873 
	C169.483765,136.500214 173.002991,132.674774 176.797958,128.546417 
	C173.700546,120.737381 170.260605,112.294930 166.996201,103.785141 
	C160.870255,87.815758 157.952301,70.988396 160.363586,54.286572 
	C163.237091,34.383087 174.828110,24.234026 194.762665,19.205538 
	C207.343994,16.031900 220.389023,16.409994 233.435211,17.847879 
	C251.382248,19.825909 266.105682,28.020777 279.718231,39.151218 
	C291.045624,48.413204 301.497650,58.464710 309.939270,70.476494 
	C311.213745,72.289993 312.277435,74.251625 313.936432,76.956337 
	C315.218842,74.909767 316.264404,73.567551 316.969574,72.065498 
	C324.206482,56.649647 333.720917,42.723679 345.833679,30.845299 
	C359.019196,17.914917 374.236450,7.616308 392.457886,3.409066 
	C408.139923,-0.211848 423.913910,0.606781 436.832916,11.624116 
	C444.917969,18.519085 449.741882,28.000786 452.031250,38.622684 
	C455.699097,55.640041 453.614319,72.321007 449.546234,88.926041 
	C448.707336,92.350060 447.789642,95.754768 447.125641,98.326492 
	C457.703339,105.880478 467.928986,113.183060 478.563782,120.777832 
	C480.032349,118.782249 481.867340,116.288750 483.702332,113.795258 
	C484.174316,113.953209 484.646301,114.111153 485.118317,114.269104 
	C484.281982,118.068230 483.445648,121.867355 482.620209,125.617058 
	C488.957855,134.005569 495.381836,142.508408 501.836884,151.052338 
	C504.323730,149.205978 506.748260,147.405884 509.890656,145.072800 
	C509.890656,146.863525 510.219574,147.901627 509.841156,148.378967 
	C504.450806,155.178253 506.983795,161.390503 510.934326,167.686127 
	C513.831543,172.303284 516.399963,177.126770 519.287170,182.158524 
	C521.046265,181.278534 522.627014,180.487778 524.207703,179.697037 
	C524.528442,179.931610 524.849121,180.166183 525.169800,180.400742 
	C524.751587,181.454956 524.636902,182.919144 523.862610,183.492264 
	C520.534790,185.955460 521.354919,188.657043 522.400330,191.996780 
	C526.425110,204.854385 531.111084,217.626617 533.638062,230.797592 
	C536.212097,244.213364 536.531128,257.922302 534.205322,271.761261 
	C531.172485,289.806396 528.023010,307.789124 518.831787,323.768799 
	C512.900208,334.081299 505.430145,343.542480 498.294800,353.120880 
	C488.568542,366.177155 474.899017,374.414795 460.717072,382.239471 
	C468.258179,398.822540 467.796356,416.173981 466.585083,433.208069 
	C466.072388,440.417389 468.397980,445.144806 471.854645,450.400330 
	C481.246185,464.679291 489.609619,479.435547 493.142731,496.457794 
	C496.238068,511.370819 497.357910,526.381653 494.919403,541.437134 
	C493.431122,550.625854 491.481354,559.796448 488.916992,568.739563 
	C485.885712,579.310791 479.671448,588.362915 472.112640,596.147827 
	C465.986542,602.457092 459.045441,608.070496 451.976898,613.336304 
	C447.120728,616.953918 449.484619,621.303589 450.209351,624.884094 
	C454.034271,643.780762 460.779541,661.796936 472.291077,677.268066 
	C482.001221,690.318176 492.803070,702.910156 507.890228,710.307617 
	C520.061584,716.275513 532.905884,717.562012 546.053528,713.484680 
	C565.342224,707.502930 584.505493,701.070312 603.955383,695.669250 
	C621.097900,690.908813 638.639893,689.836609 656.492981,691.829651 
	C670.978943,693.446838 684.456665,697.870117 695.952087,706.238037 
	C709.472351,716.080017 719.882568,729.070007 722.798096,746.219727 
	C723.982910,753.188721 723.115845,760.506531 723.591187,767.832764 
	C724.000000,768.444458 724.000000,768.888916 723.631409,769.768921 
	C721.372681,775.103271 720.227234,780.482605 717.439392,784.802002 
	C711.398193,794.162354 704.516724,802.980286 698.132629,811.807434 
	C702.346985,812.768250 707.427063,813.494507 712.149353,815.207092 
	C714.150635,815.932922 716.446106,818.618896 716.658630,820.620972 
	C716.825989,822.197021 714.338867,824.690369 712.453796,825.742371 
	C702.778809,831.141418 691.794861,830.964050 681.256042,831.821899 
	C664.813477,833.160339 648.278564,833.415283 631.776306,833.918457 
	C629.055664,834.001404 627.452209,834.597412 627.001404,837.375793 
	C626.017578,843.439697 624.892883,849.483093 624.032043,855.564026 
	C623.235046,861.194519 623.268555,867.002136 621.913635,872.478638 
	C620.312744,878.949036 617.614258,885.147827 615.378845,891.500671 
	C620.200012,892.623718 625.415588,893.476990 630.342712,895.169861 
	C632.233215,895.819458 634.345398,898.221680 634.699158,900.132141 
	C634.949402,901.483887 632.708740,904.311829 631.068787,904.815308 
	C625.264526,906.597046 619.274841,908.572449 613.292114,908.798340 
	C602.903442,909.190491 592.437195,908.712402 582.061279,907.879211 
	C573.865479,907.221069 565.762146,905.442688 557.602661,904.266418 
	C556.403809,904.093567 554.953613,904.166504 553.904480,904.693054 
	C546.561096,908.378479 539.292480,912.213135 532.000000,916.000000 
	C527.975464,916.000000 523.950928,916.000000 519.463196,916.000000 
M611.998413,819.490173 
	C613.701904,821.681885 615.405457,823.873596 617.108948,826.065308 
	C617.637451,825.846924 618.165955,825.628540 618.694458,825.410156 
	C617.501221,820.440979 616.919250,815.221619 615.005737,810.547363 
	C607.885132,793.153442 595.466553,780.555969 578.818787,771.942566 
	C557.728577,761.030579 534.896484,757.246155 511.611298,756.174133 
	C498.055725,755.550171 484.395264,756.268799 470.827637,757.115173 
	C458.235199,757.900757 445.702209,759.647583 433.145844,760.997131 
	C430.527344,761.278625 427.921204,761.674500 425.309357,762.017639 
	C425.059143,761.436401 424.808929,760.855164 424.558716,760.273865 
	C430.023499,756.825684 435.488281,753.377441 440.999634,749.899841 
	C430.500427,743.148987 420.315186,746.221619 410.102478,751.022278 
	C412.905792,743.144226 420.083801,742.007874 425.396698,739.063904 
	C424.218506,728.524658 423.008453,718.327209 421.954163,708.113770 
	C420.571838,694.722412 419.233002,681.325500 418.027466,667.917358 
	C417.201538,658.731018 416.633545,649.521484 415.952332,640.322205 
	C414.967377,627.021484 413.700073,613.732422 413.151550,600.413696 
	C412.954437,595.627319 413.856812,590.509827 418.936920,586.082092 
	C420.087585,597.771118 421.130920,608.369812 422.220703,619.440308 
	C443.500275,611.716248 460.118286,599.283936 472.715698,581.475586 
	C469.115875,582.939209 465.986084,585.273682 462.480682,586.654846 
	C458.805603,588.102844 454.770203,588.636230 450.892273,589.569397 
	C450.725464,589.174500 450.558624,588.779602 450.391815,588.384705 
	C460.748260,583.601746 469.245087,576.522095 475.813568,567.389465 
	C484.869934,554.797668 488.050171,544.854675 486.303436,536.354004 
	C480.730164,541.141541 476.779694,548.179199 468.769440,549.060425 
	C474.130951,541.194031 479.745972,533.609131 484.647949,525.588440 
	C490.065277,516.724609 487.135101,507.465790 485.011108,497.522034 
	C479.665100,504.286804 475.410767,511.102203 467.185089,513.563416 
	C467.655762,511.626404 468.728973,510.209045 469.742035,508.749908 
	C473.834930,502.854614 477.985535,496.996338 481.917206,490.994934 
	C482.590515,489.967102 482.835297,488.082886 482.369873,486.976227 
	C478.839905,478.583069 475.083618,470.285065 471.323608,461.789459 
	C465.375153,465.770416 462.415283,472.552063 455.226105,473.400024 
	C458.092804,469.262268 461.229919,465.479553 464.624603,461.944153 
	C467.555695,458.891602 467.652771,456.355988 464.729828,453.090088 
	C461.339172,449.301636 458.517578,445.003906 455.289032,440.714722 
	C453.579346,441.569763 450.751343,442.984100 447.923370,444.398407 
	C447.518829,443.900116 447.114319,443.401825 446.709808,442.903503 
	C449.966400,439.613037 453.052460,436.126831 456.533600,433.094116 
	C459.310242,430.675201 460.517792,428.006012 460.016113,424.404419 
	C459.465912,420.454132 459.044952,416.485870 458.550903,412.386353 
	C451.924042,417.029144 445.866943,422.153107 437.472321,422.500793 
	C438.739899,420.906860 440.285645,419.773651 441.820709,418.626129 
	C445.879517,415.592224 450.193390,412.838104 453.928253,409.446808 
	C459.416962,404.462982 459.380280,399.334045 454.789978,393.791260 
	C449.111969,397.115234 443.509003,400.395294 437.906036,403.675323 
	C437.535919,403.133362 437.165833,402.591400 436.795746,402.049438 
	C439.872711,394.440186 450.252502,393.925537 454.129211,385.307251 
	C438.962524,388.881744 425.119324,394.294373 411.065125,391.385620 
	C407.473083,395.704376 404.557983,400.029907 400.835632,403.486023 
	C395.673645,408.278809 391.944824,408.840057 386.018646,407.083832 
	C390.042175,404.762970 393.973633,402.495239 397.905090,400.227478 
	C397.669678,399.781464 397.434296,399.335480 397.198914,398.889465 
	C390.297852,400.133667 383.396790,401.377869 376.495728,402.622070 
	C376.338074,402.032593 376.180389,401.443115 376.022705,400.853607 
	C390.480194,393.955780 404.937653,387.057922 419.695129,380.016907 
	C419.695129,381.701385 419.695129,383.243164 419.695129,385.188812 
	C438.585205,384.276550 455.185333,377.325867 471.451569,366.580414 
	C463.995514,364.787811 456.692627,368.274384 450.350861,362.793579 
	C451.824280,361.952362 452.581238,361.244934 453.445923,361.069946 
	C460.464905,359.649567 467.650574,358.834564 474.500061,356.850067 
	C483.083130,354.363373 491.692322,351.416351 497.087280,343.386871 
	C499.624603,339.610443 502.073608,335.774597 505.207092,330.979492 
	C496.270813,333.774536 489.169525,337.713959 479.692505,334.183136 
	C483.238556,332.756378 485.443451,331.881409 487.639069,330.983856 
	C500.528198,325.715118 514.779663,322.239044 518.273193,305.473907 
	C519.519714,299.491760 521.794678,293.723938 523.600220,287.858276 
	C523.173645,287.655334 522.747131,287.452362 522.320618,287.249420 
	C513.179749,293.431000 503.734833,298.749023 492.213104,298.155884 
	C492.203949,298.007416 492.130188,297.725952 492.192657,297.691498 
	C493.884796,296.758667 495.556824,295.779327 497.300323,294.951233 
	C507.197388,290.250488 516.366028,284.535645 523.456848,275.994293 
	C524.546387,274.681885 525.807312,273.032654 525.916931,271.464294 
	C526.587891,261.863739 526.949951,252.241577 527.449280,241.916855 
	C521.853088,245.778183 517.413574,249.081863 512.734802,252.002335 
	C508.027740,254.940491 502.992371,257.054016 495.703033,255.241928 
	C498.242889,253.703766 499.608887,252.742874 501.085876,252.003754 
	C510.390442,247.347641 517.944092,240.627182 524.022461,232.274170 
	C524.774963,231.240082 524.696228,229.182709 524.299927,227.801117 
	C522.245422,220.639481 519.962769,213.543335 517.655518,206.088043 
	C511.429657,211.922485 504.626007,216.238449 495.437775,218.120468 
	C513.630005,199.397552 513.630005,199.397552 511.800537,195.506073 
	C498.958313,202.882034 485.355530,207.807587 470.000000,208.338318 
	C470.000000,211.982285 469.991058,215.447449 470.001556,218.912567 
	C470.045563,233.440109 470.337646,247.949142 467.048401,262.289490 
	C462.916412,280.303894 455.802094,297.012482 442.929016,310.266449 
	C426.884949,326.785248 406.326630,334.497009 383.534149,335.875183 
	C376.093353,336.325134 368.564117,335.312073 360.475830,334.940582 
	C358.283966,344.265472 350.664429,349.240540 340.971802,353.067963 
	C343.276917,354.027924 344.434998,354.586517 345.642487,355.001373 
	C359.748199,359.847534 374.145813,362.942871 389.088409,364.255005 
	C405.058929,365.657440 420.636597,365.526093 435.244629,358.237488 
	C450.569275,350.591431 462.188751,338.633423 469.542267,323.426147 
	C476.149292,309.762665 478.366852,295.286377 468.340546,281.624237 
	C467.954987,281.098877 468.164612,280.136719 468.082306,279.214569 
	C474.380615,278.182465 474.949677,284.759430 479.127991,287.012939 
	C479.824524,285.233612 481.180450,283.546295 480.855438,282.295807 
	C479.369720,276.578979 477.412689,270.984650 475.442413,264.770477 
	C476.961151,265.333008 478.635803,265.555878 479.793793,266.448792 
	C485.834930,271.107178 487.725494,283.573364 484.244507,290.419983 
	C482.470184,293.909790 481.224274,298.067749 481.155396,301.948822 
	C480.962646,312.810486 479.035339,323.186798 473.653656,332.609863 
	C468.670197,341.335602 462.371887,349.015594 454.323151,355.327698 
	C445.997070,361.857300 437.273376,367.473694 426.930573,369.947601 
	C413.931671,373.056763 400.793762,372.142578 387.571472,371.169189 
	C369.221710,369.818359 351.934998,365.109558 335.437256,357.177216 
	C331.658264,355.360229 328.228851,356.517792 324.701385,358.033630 
	C317.521637,361.119080 310.400299,364.406830 303.034424,366.980347 
	C281.230713,374.598297 258.867218,377.551483 235.742477,375.131989 
	C224.943741,374.002136 214.493774,372.354279 204.343613,368.204376 
	C176.273560,356.727936 164.446182,335.136292 167.238846,306.837006 
	C167.661331,302.555573 167.193161,299.503632 165.100021,295.902405 
	C160.185257,287.446564 165.075546,276.115540 174.014099,275.323547 
	C169.928375,281.048553 167.323807,286.937042 169.622604,293.807526 
	C171.852539,291.931305 173.878998,290.226257 175.625885,288.756470 
	C175.062103,300.188751 173.670227,310.996246 174.226242,321.702606 
	C174.870041,334.099487 180.667496,344.798248 190.386719,352.626831 
	C205.139359,364.509796 222.710983,368.957764 241.228653,368.822632 
	C254.862976,368.723145 268.649963,367.965759 282.063080,365.695007 
	C293.599213,363.742065 304.702667,359.233276 316.023712,355.846710 
	C309.075134,351.293884 302.983734,347.302704 296.281128,342.911041 
	C296.011780,342.999878 294.523407,343.717407 292.959869,343.970490 
	C280.129639,346.047424 267.258057,345.732330 254.657639,342.878632 
	C238.395660,339.195709 223.016953,333.262299 211.241470,320.691010 
	C200.893585,309.643829 194.223343,296.355774 189.027115,282.323853 
	C182.956436,265.930603 180.561081,248.800583 179.862595,230.903839 
	C162.672684,229.638062 147.628555,222.586868 132.628723,213.821686 
	C131.284286,218.074295 130.055847,221.578262 129.135361,225.161346 
	C128.926010,225.976303 129.509705,227.380814 130.195450,227.974121 
	C133.416504,230.760986 136.743896,233.434250 140.140076,236.007156 
	C144.707947,239.467712 149.373734,242.798996 153.997498,246.185776 
	C143.316528,246.003738 134.948151,240.528595 126.055687,234.535721 
	C124.654823,244.190536 123.288757,253.186249 122.118919,262.207397 
	C121.975418,263.314026 122.524178,265.011963 123.356873,265.666595 
	C132.332001,272.722198 140.499374,280.953644 151.454987,285.197540 
	C152.576904,285.632141 153.325226,287.031189 154.246902,287.982697 
	C153.866028,288.550323 153.485153,289.117950 153.104263,289.685577 
	C142.776703,285.100555 132.449142,280.515533 121.994652,275.874146 
	C123.332466,284.376251 124.408249,292.956451 126.157692,301.397034 
	C126.780159,304.400269 128.336655,308.083069 130.678680,309.696259 
	C138.308563,314.951782 146.500916,319.390076 154.470947,324.152710 
	C157.687805,326.075012 160.889420,328.022827 164.097977,329.959015 
	C152.437607,330.467438 142.638428,325.392090 131.438889,320.492981 
	C134.664474,327.034302 137.576981,332.285065 139.899689,337.784912 
	C145.051453,349.983490 154.877701,355.160950 167.256821,357.071899 
	C172.211609,357.836761 177.064056,359.264709 181.963089,360.390808 
	C181.901047,360.914948 181.839005,361.439056 181.776962,361.963196 
	C174.018890,361.963196 166.260818,361.963196 158.502731,361.963196 
	C158.292862,362.485382 158.082993,363.007568 157.873108,363.529724 
	C163.817734,368.107697 169.262543,373.656952 175.825150,377.033936 
	C185.457184,381.990295 196.295853,383.485138 207.148499,384.003174 
	C213.915085,384.326141 220.682404,384.644409 227.442841,385.068970 
	C228.217377,385.117615 228.949677,385.838318 231.055283,386.983948 
	C225.139481,387.784027 220.656021,388.510101 216.145264,388.966797 
	C211.625854,389.424316 207.079224,389.612823 202.319229,389.934479 
	C209.037277,391.352478 215.410492,392.465363 221.638229,394.124390 
	C224.197739,394.806244 226.449509,397.803833 228.831528,397.792023 
	C239.561264,397.738770 250.293335,397.082001 261.013031,396.447784 
	C268.254700,396.019318 275.477112,395.266205 282.708160,394.658325 
	C282.899689,395.441162 283.091217,396.223999 283.282745,397.006836 
	C278.352600,398.895081 273.422485,400.783356 267.871094,402.909546 
	C270.700775,403.331207 272.943634,403.917297 275.189636,403.929504 
	C277.452545,403.941833 279.710541,403.270844 281.985626,403.108765 
	C284.130066,402.955994 286.293915,403.075989 288.449249,403.075989 
	C279.927094,407.419708 271.364990,410.528442 262.839050,408.310333 
	C264.996643,414.901031 267.223969,421.704681 269.106598,427.455444 
	C275.941833,426.680023 283.364441,424.949280 290.706726,425.240875 
	C298.978546,425.569366 303.398834,432.193298 306.894989,439.375031 
	C307.991119,438.366058 308.915100,437.828827 309.391937,437.026062 
	C312.595398,431.632599 317.631744,429.003693 323.299377,426.823151 
	C333.384552,422.942902 343.668457,422.976532 353.893188,425.083801 
	C371.904053,428.795685 388.527740,435.349121 400.722534,451.909668 
	C401.890686,449.323944 403.444641,447.335693 403.587006,445.251038 
	C403.842010,441.517639 402.912750,437.710297 403.091278,433.963043 
	C403.320129,429.159271 406.256348,426.349731 409.842896,426.706207 
	C408.765106,430.607025 407.676788,434.545959 406.588470,438.484863 
	C407.143280,438.655487 407.698090,438.826111 408.252869,438.996735 
	C410.023621,435.887390 411.794342,432.778046 413.904175,429.073212 
	C418.331757,434.809753 415.925446,439.493683 413.958221,443.886139 
	C407.407379,458.513275 397.985443,471.163940 385.810974,481.517151 
	C378.998627,487.310425 371.650940,492.570099 362.023315,493.201141 
	C359.686005,493.354370 356.655792,494.704559 355.325287,496.517792 
	C347.410614,507.303864 339.879822,518.372620 332.278503,529.386719 
	C331.086456,531.113953 330.192352,533.046875 328.839508,535.456421 
	C341.119843,539.319336 352.478790,543.273010 364.055786,546.426147 
	C375.443848,549.527771 387.063995,551.829163 398.830933,547.956604 
	C408.239868,544.859985 415.837769,539.488342 422.146423,531.601746 
	C429.827362,521.999573 437.635895,512.587769 443.168274,501.516296 
	C446.405548,495.037872 449.746002,488.610992 453.731628,480.806732 
	C454.670868,484.352325 456.391479,487.147797 455.801666,489.314270 
	C454.028015,495.829102 452.402405,502.779907 448.805115,508.317352 
	C442.053101,518.710999 434.122253,528.363342 426.369171,538.074463 
	C420.170380,545.838684 412.642975,552.099548 402.912628,555.035034 
	C392.247681,558.252502 381.529205,557.598633 370.806213,555.065857 
	C355.924713,551.550781 341.016693,548.187195 327.341339,540.908325 
	C326.266449,540.336182 323.857056,540.930603 322.833008,541.842285 
	C318.981171,545.271606 315.585419,549.210205 311.765961,552.679565 
	C301.248932,562.232788 288.749603,566.703369 274.840149,563.716370 
	C254.119690,559.266724 235.892700,549.245483 221.030334,534.192566 
	C213.509186,526.574951 207.799347,517.173950 201.212341,508.624084 
	C200.157135,507.254456 198.960968,505.876648 197.547806,504.918976 
	C189.640091,499.560303 184.788574,492.660065 186.068924,482.650818 
	C186.226028,481.422577 187.296021,480.311096 187.942978,479.145477 
	C188.629303,480.114655 189.307541,481.089691 190.004196,482.051392 
	C190.708466,483.023621 191.498535,484.856140 192.134705,484.806976 
	C196.565811,484.464539 197.276031,488.140808 198.920578,490.723450 
	C205.046036,500.343018 210.244476,510.695648 217.347855,519.519714 
	C231.819366,537.496765 250.652893,549.371155 272.892487,556.036133 
	C286.200653,560.024475 297.244843,557.380615 306.992279,547.575867 
	C322.123260,532.355957 334.066132,514.704346 345.913940,496.995880 
	C349.928375,490.995728 353.670471,486.224579 361.935516,485.298767 
	C378.027313,483.496216 387.748077,472.397247 395.258881,459.105194 
	C395.743286,458.247894 395.617981,456.445801 395.015778,455.685791 
	C393.112946,453.284180 391.199860,450.588928 388.659210,449.049713 
	C380.319061,443.996826 371.954651,438.852478 363.122467,434.777283 
	C352.654968,429.947571 341.264496,428.712646 329.994568,431.192017 
	C317.156219,434.016388 310.363556,443.381927 307.044800,455.482574 
	C304.284210,465.548065 298.850220,473.669861 291.037354,480.559448 
	C277.048248,492.895355 257.273895,489.505219 247.546875,474.831879 
	C245.605728,471.903625 243.667664,471.170746 240.409103,470.882080 
	C230.375534,469.993225 221.195053,467.148621 215.801559,457.490356 
	C214.224380,454.666077 212.416672,451.970581 210.661560,449.130188 
	C201.061188,454.861786 192.307907,451.234802 182.622925,446.421356 
	C188.457520,456.570923 199.062805,459.195312 206.229279,465.824646 
	C205.992294,466.334137 205.755310,466.843628 205.518311,467.353149 
	C199.615646,465.547302 193.712982,463.741455 188.086273,462.020020 
	C184.471359,468.830841 181.062607,475.489594 177.426743,482.021912 
	C174.923599,486.519135 174.276123,490.365295 179.202667,493.805084 
	C182.155731,495.867035 184.689316,498.529877 187.410568,500.923645 
	C190.046616,503.242432 192.681519,505.562531 195.316925,507.882050 
	C185.614319,507.741669 179.150757,501.078949 171.118317,497.244507 
	C169.956741,501.881439 168.569473,506.089966 167.965775,510.408051 
	C167.677765,512.468018 168.277969,515.222656 169.549744,516.792908 
	C171.338821,519.001953 174.048126,520.522156 176.502060,522.125488 
	C183.240448,526.528076 190.050903,530.820374 196.832825,535.156372 
	C184.984467,535.407166 175.548462,529.298462 165.526138,522.827454 
	C164.989273,530.254700 164.469727,536.923523 164.081955,543.599976 
	C164.042664,544.276184 164.731079,545.046448 165.194672,545.692078 
	C170.471664,553.041138 177.687424,558.115540 185.303848,562.693909 
	C189.444199,565.182739 193.653442,567.557007 197.831635,569.982910 
	C197.497482,570.637024 197.163345,571.291138 196.829193,571.945251 
	C187.284943,567.853333 177.740692,563.761475 167.539169,559.387756 
	C169.940048,566.543274 170.376587,574.027527 176.339722,578.682495 
	C182.239456,583.287964 188.634354,587.270020 194.900253,591.391418 
	C198.495926,593.756470 202.266968,595.854858 205.959045,598.073303 
	C205.719543,598.579773 205.480042,599.086243 205.240540,599.592712 
	C199.045380,597.374451 192.850204,595.156250 186.655029,592.937988 
	C186.384933,593.422241 186.114853,593.906494 185.844757,594.390686 
	C194.169556,600.839722 202.494354,607.288757 210.819153,613.737793 
	C211.225906,613.424561 211.632660,613.111328 212.039413,612.798096 
	C210.456268,606.860962 208.137222,600.896606 212.251038,593.635254 
	C213.268982,597.666687 213.928772,600.279724 214.927490,604.235046 
	C216.668579,601.059570 217.903351,598.807556 219.138123,596.555542 
	C219.740707,596.710571 220.343292,596.865662 220.945877,597.020752 
	C222.296509,603.188599 223.920990,609.311523 224.941574,615.533508 
	C227.163467,629.079102 229.004272,642.686646 231.135452,656.247742 
	C234.024750,674.632935 237.377884,692.953369 239.837814,711.394165 
	C240.843781,718.935364 242.713837,724.699402 250.756546,727.072083 
	C253.496490,727.880432 255.844711,730.016541 258.371918,731.545898 
	C258.186676,732.172974 258.001434,732.800049 257.816193,733.427063 
	C244.992905,728.435669 232.177094,724.960632 219.041718,732.218445 
	C226.087112,737.032166 234.694778,738.498474 240.810822,745.947754 
	C238.761353,745.947754 237.897079,746.126404 237.136780,745.920715 
	C227.248352,743.245300 217.449524,740.193237 207.479187,737.877014 
	C193.532043,734.637024 179.568207,731.086060 165.405975,729.278870 
	C154.548676,727.893494 143.355911,728.612488 132.344833,729.111877 
	C122.362915,729.564636 112.367538,730.597412 102.479103,732.058228 
	C79.794647,735.409668 61.006866,745.835327 47.219704,764.404297 
	C43.128471,769.914490 39.834885,776.016846 36.175797,781.847839 
	C36.676434,782.402405 37.177071,782.956909 37.677711,783.511414 
	C42.927349,781.205688 48.176987,778.900024 53.426624,776.594299 
	C53.710743,777.037476 53.994865,777.480652 54.278984,777.923767 
	C53.105156,779.196533 51.927006,780.465271 50.758259,781.742676 
	C45.847298,787.110229 40.450863,792.117920 36.136257,797.928650 
	C28.264559,808.529785 26.055126,820.815369 26.944374,833.865845 
	C27.546469,842.702148 30.267418,850.696228 36.515598,856.876099 
	C49.744968,869.960938 65.988304,872.189758 84.277718,868.807068 
	C76.327850,857.306702 73.243462,844.940796 73.878204,831.331787 
	C74.502045,817.956482 79.318542,806.567322 87.941223,796.655396 
	C90.697105,793.487427 94.160614,791.053040 98.835335,791.226746 
	C98.883881,792.034424 99.063461,792.581543 98.906815,793.003845 
	C98.686966,793.596741 98.195305,794.083496 97.857597,794.638611 
	C93.725525,801.430542 88.962288,807.929016 85.620811,815.090515 
	C80.425491,826.225403 79.842751,838.535400 83.698624,849.810181 
	C90.776543,870.506226 109.173592,875.981018 127.637169,870.734558 
	C146.280396,865.437012 158.540985,852.313477 161.830368,830.871643 
	C165.005417,833.844055 167.786652,836.249084 170.338486,838.876831 
	C176.272324,844.987122 183.701767,847.672241 191.939819,847.940613 
	C208.023132,848.464417 222.081024,835.091125 226.015366,820.368347 
	C226.341415,819.148254 227.012955,818.020447 227.006073,818.036194 
	C230.125687,818.863708 232.396896,820.234375 234.330276,819.859985 
	C253.355240,816.176697 272.302460,812.092224 291.324310,808.391907 
	C295.964111,807.489258 298.646820,805.078430 301.114868,801.181213 
	C304.501221,795.833984 308.057709,790.137268 312.878998,786.248962 
	C323.659363,777.554626 335.256836,769.871765 346.550385,761.817505 
	C348.024658,760.766052 349.669800,759.954285 351.235809,759.031433 
	C343.766144,753.938965 337.479523,750.486572 330.959381,747.553223 
	C323.096100,744.015808 318.182892,738.290039 315.917419,730.001465 
	C311.545563,714.006226 306.766388,698.118835 302.605804,682.070190 
	C297.828369,663.642090 293.354584,645.128601 289.211670,626.548950 
	C288.490143,623.313110 287.566162,619.100891 291.345581,615.315674 
	C293.253540,619.614624 294.738556,623.481262 296.683838,627.100464 
	C297.521301,628.658569 299.292267,630.789307 300.673676,630.815125 
	C315.194000,631.087158 329.722168,631.047058 344.244720,630.843567 
	C345.176208,630.830444 347.024261,628.557190 346.838440,627.673218 
	C345.787811,622.675415 346.709229,617.387756 343.376984,612.664978 
	C339.429871,607.070679 338.606720,600.535828 341.552673,594.044067 
	C342.170441,592.682678 343.731171,591.749207 344.857391,590.618530 
	C345.373444,590.918518 345.889496,591.218506 346.405548,591.518494 
	C346.405548,595.297485 346.405548,599.076477 346.405548,604.087585 
	C348.742218,598.738464 350.509247,594.693359 352.276306,590.648254 
	C352.880432,590.832581 353.484558,591.016907 354.088654,591.201233 
	C354.392426,594.259583 354.895142,597.313232 354.967010,600.376953 
	C355.368134,617.475037 355.572968,634.578064 356.020508,651.674805 
	C356.593018,673.544067 357.333862,695.408936 357.999481,717.275757 
	C358.337341,728.375671 358.277405,739.508484 359.199188,750.559448 
	C359.561981,754.908630 360.333588,758.512817 356.185547,761.379822 
	C353.231171,763.421814 350.555969,765.863098 347.699707,768.052490 
	C336.020782,777.004333 323.495605,784.871216 313.943481,796.444031 
	C304.697449,807.645874 303.056396,820.017578 317.081940,828.403809 
	C324.136444,832.621826 331.673401,836.692200 339.536346,838.776794 
	C364.374542,845.361816 389.411407,851.247253 414.528595,856.676147 
	C418.271210,857.484985 425.289886,862.389221 427.158234,852.260559 
	C433.331848,865.367004 440.057953,877.948853 454.852051,880.580017 
	C468.941772,883.085938 482.226318,879.524780 491.205688,868.372314 
	C493.544525,875.842651 495.111511,883.323608 498.185303,890.123535 
	C503.705444,902.335449 519.090027,908.764832 532.161316,905.422363 
	C542.669861,902.735229 549.735107,895.977722 555.482300,887.158447 
	C565.590515,871.646973 563.731995,850.414246 550.921143,837.362549 
	C548.673035,835.072205 546.820068,832.394165 544.599060,829.667358 
	C549.473389,828.976257 557.728760,834.033386 561.617920,840.265686 
	C573.173279,858.783020 574.023315,877.517578 561.681152,896.779846 
	C563.125732,897.252319 564.259338,897.927979 565.403809,897.946960 
	C571.735046,898.052124 578.143005,898.610962 584.385010,897.857178 
	C594.418335,896.645630 603.292664,892.690063 609.053589,883.718567 
	C617.654663,870.323975 617.909119,855.779358 614.401367,840.942444 
	C611.446838,828.445618 603.288574,819.368225 593.048462,811.419800 
	C601.359253,809.713989 607.281738,812.285339 611.998413,819.490173 
M317.963348,142.828674 
	C317.647247,142.076492 317.105103,141.340683 317.049286,140.569656 
	C316.325928,130.580032 315.520630,120.592171 315.073334,110.588783 
	C314.891083,106.512672 312.987488,104.127998 309.792419,101.921753 
	C298.492462,94.118942 286.046661,91.833687 272.447418,91.787231 
	C253.936996,91.724014 239.641235,99.994003 227.382385,112.404091 
	C220.815643,119.051857 214.780518,126.609520 210.163864,134.702576 
	C204.236710,145.092926 199.002884,156.111176 195.243042,167.446869 
	C190.495346,181.760880 187.812881,196.695587 187.969910,211.977173 
	C188.108597,225.474289 186.706680,239.132233 188.327011,252.433868 
	C190.545120,270.642639 196.539383,288.032867 205.995453,304.007629 
	C212.688293,315.314331 221.657867,324.517853 233.659851,329.714966 
	C249.601852,336.618164 266.474762,340.093018 283.999390,338.945984 
	C290.082428,338.547852 296.145081,337.961304 301.141083,333.481689 
	C305.631561,329.455353 310.268646,325.372589 315.471405,322.428833 
	C319.778778,319.991669 325.005432,319.179291 329.521698,317.743439 
	C328.990143,311.115143 328.469757,304.943329 328.005920,298.767303 
	C327.317596,289.602081 326.628723,280.436523 326.013184,271.266235 
	C324.978516,255.852341 324.022186,240.433197 322.992249,225.018982 
	C322.368378,215.682709 321.581482,206.356781 321.020569,197.017014 
	C319.954926,179.272629 318.998932,161.521667 317.963348,142.828674 
M322.000031,136.501587 
	C322.998871,150.251129 324.071411,163.995834 324.974121,177.751678 
	C325.750092,189.575729 326.328156,201.412750 327.001709,213.243576 
	C327.329041,218.992950 327.583740,224.748322 328.029144,230.488739 
	C329.309662,246.992188 330.760223,263.482819 331.968994,279.991272 
	C332.797760,291.310242 333.254822,302.656219 334.055969,313.977539 
	C334.260986,316.874725 335.468506,318.596252 339.148651,319.233246 
	C344.222504,320.111450 349.378845,321.990814 353.836578,324.582275 
	C359.607697,327.937256 365.401855,329.837280 372.088470,330.087494 
	C386.689270,330.633881 400.720245,327.777863 413.588867,321.451294 
	C422.749817,316.947571 431.842194,311.144104 438.927979,303.921906 
	C445.379028,297.346619 449.798950,288.416412 453.831635,279.915802 
	C459.824738,267.282959 463.605713,253.890884 463.022156,239.605453 
	C462.577301,228.715149 462.967865,217.749252 461.819397,206.941010 
	C460.698608,196.393158 459.102753,185.686005 455.931000,175.610535 
	C449.769562,156.038040 439.782959,138.206635 427.949646,121.432976 
	C421.422363,112.180588 414.060303,103.659210 404.852661,97.047699 
	C389.865112,86.285988 373.398895,81.149460 354.630981,83.872520 
	C342.185852,85.678185 331.393982,90.287613 322.525726,99.110474 
	C321.112762,100.516212 320.052063,103.071037 320.127899,105.044708 
	C320.518860,115.220398 321.333344,125.379822 322.000031,136.501587 
M393.311951,39.013134 
	C393.384369,39.953983 393.863251,41.453026 393.462860,41.744606 
	C390.965790,43.562962 388.312256,45.180294 385.636749,46.737423 
	C371.704041,54.846264 360.031799,65.578674 349.773438,77.000000 
	C355.426422,77.000000 361.296265,76.847420 367.155670,77.030144 
	C381.625427,77.481392 394.758026,82.222649 406.206146,90.874138 
	C415.111542,97.604080 423.345154,105.222961 431.955963,112.513344 
	C432.217957,112.091492 432.717194,111.443085 433.055908,110.719521 
	C442.305267,90.959358 448.589966,70.654121 446.104034,48.349655 
	C444.928833,37.805344 442.113647,28.066706 434.736115,20.367363 
	C422.719116,7.826192 407.394592,5.894127 391.940643,10.826294 
	C368.214233,18.398624 349.717102,33.821758 336.060974,54.499474 
	C329.245026,64.819992 323.978302,76.162521 317.981567,87.026627 
	C317.172485,88.492401 316.191925,89.863510 315.066650,91.630318 
	C314.041870,90.369698 313.443695,89.799065 313.040497,89.113739 
	C302.685150,71.512543 289.671082,56.273342 273.382660,43.843193 
	C250.914642,26.697187 225.798645,20.768709 198.371323,27.222507 
	C184.790634,30.418118 174.175018,38.351559 169.225662,52.379810 
	C165.602798,62.648357 167.629517,72.790810 169.484924,82.879929 
	C172.657288,100.130333 180.905029,115.412659 188.986984,130.701904 
	C191.286407,135.051910 194.073914,139.143906 196.800034,143.620972 
	C197.889603,142.480835 198.490280,142.081757 198.773956,141.521988 
	C206.363235,126.546127 216.513626,113.664307 229.498352,102.941643 
	C244.364838,90.665039 261.124237,84.067207 280.559418,85.038849 
	C283.839172,85.202827 287.096375,85.817963 291.751984,86.397400 
	C277.021027,71.234314 259.330841,63.865707 242.229141,55.039028 
	C246.400726,54.159206 250.676407,53.325058 253.986206,54.743942 
	C263.507690,58.825733 273.066895,63.146786 281.768097,68.695992 
	C287.272980,72.206757 292.231232,77.501106 295.614594,83.096130 
	C297.990936,87.025887 300.400208,89.874557 304.341705,91.699043 
	C308.007355,93.395859 311.709167,95.014503 315.099335,96.534927 
	C319.886749,92.657410 324.375427,88.120132 329.684296,84.961342 
	C335.666534,81.401871 340.872345,77.507561 345.603119,72.207306 
	C358.618591,57.625118 373.625305,45.452106 393.311951,39.013134 
M644.971375,824.526062 
	C650.126648,823.076050 655.344055,821.814758 660.425659,820.140991 
	C676.318604,814.906128 689.672852,805.892212 700.482727,793.053650 
	C713.248779,777.891846 717.389709,760.696411 712.129639,741.654602 
	C708.646057,729.043579 700.172607,719.786682 689.932678,711.929871 
	C682.856018,706.500244 675.037354,703.049438 665.533142,700.656494 
	C666.055115,709.025269 666.852478,716.588379 666.932129,724.159058 
	C667.104187,740.511230 670.838806,756.249756 674.504150,772.023132 
	C675.909607,778.071106 677.259583,784.131897 678.634766,790.186890 
	C678.154358,790.335815 677.673950,790.484741 677.193481,790.633728 
	C676.533936,789.589233 675.638977,788.624695 675.252625,787.487366 
	C672.586243,779.638733 669.530762,771.876343 667.548157,763.852051 
	C664.622009,752.008728 662.106750,740.032288 660.139832,727.994324 
	C658.792419,719.747314 658.483582,711.308228 658.097961,702.937073 
	C657.932983,699.354492 656.216003,698.925110 653.329102,698.964539 
	C645.666809,699.069214 638.001343,698.929565 630.338928,699.028748 
	C626.310059,699.080872 622.284973,699.429626 618.000000,699.658264 
	C618.000000,711.898438 617.486938,723.237366 618.146667,734.507568 
	C618.785889,745.427795 620.207336,756.350342 622.066528,767.137268 
	C623.890381,777.718445 626.697754,788.130127 629.073486,798.616211 
	C628.529724,798.719727 627.985962,798.823242 627.442261,798.926758 
	C612.541992,768.378296 607.870911,735.867065 610.395264,701.182495 
	C598.455688,705.041321 587.894409,708.833740 577.092285,711.727417 
	C573.606689,712.661072 572.922485,713.869629 572.956543,716.947937 
	C573.070862,727.275940 573.024475,737.606140 572.992188,747.935364 
	C572.966675,756.113403 575.500000,762.645752 583.974243,765.488403 
	C584.436707,765.643555 584.929077,765.795898 585.316589,766.075500 
	C592.865723,771.522827 601.630920,775.895142 607.672974,782.688232 
	C618.847290,795.251099 627.003113,809.846436 627.316101,827.620178 
	C632.979492,826.715210 638.596436,825.817688 644.971375,824.526062 
M348.000000,664.558655 
	C347.554779,656.182312 347.109528,647.805969 346.641479,639.000122 
	C331.149445,639.000122 315.612457,639.000122 299.865845,639.000122 
	C305.009033,658.478088 309.985138,678.230713 315.488678,697.835266 
	C318.942047,710.136719 322.924561,722.310730 327.264069,734.327271 
	C328.340240,737.307251 331.276062,740.346741 334.145996,741.788208 
	C339.352295,744.403198 345.151062,745.838440 350.841187,747.814270 
	C350.217346,738.122253 349.340149,728.675415 349.057922,719.210876 
	C348.524597,701.327393 348.333374,683.433716 348.000000,664.558655 
M441.542542,741.911499 
	C443.008209,742.942444 445.101593,743.650391 445.827942,745.061829 
	C448.587738,750.424805 453.372223,749.055237 457.653534,748.933044 
	C463.746948,748.759155 468.536774,746.936401 469.847809,739.718628 
	C470.586609,735.651184 472.754639,731.797180 474.558502,727.979126 
	C477.945892,720.809387 481.536133,713.735474 484.989105,706.729065 
	C479.020782,700.061951 473.259460,693.626038 467.471771,687.160706 
	C464.961548,689.551575 462.795288,691.873657 460.368591,693.880920 
	C450.407440,702.120422 441.667603,711.493408 434.961212,722.531250 
	C429.904205,730.854370 432.313049,737.589478 441.542542,741.911499 
M288.678192,431.241791 
	C285.269318,431.449738 281.703857,431.084991 278.479187,431.966675 
	C265.846466,435.420929 258.594788,444.667053 254.091492,456.283783 
	C251.250687,463.611969 252.561218,470.702026 258.174103,476.264435 
	C263.167358,481.212860 269.123199,483.339813 276.512878,481.126831 
	C286.077423,478.262604 292.830383,472.057800 297.886963,464.050201 
	C305.911011,451.343292 302.336731,435.695770 288.678192,431.241791 
M244.348068,464.834991 
	C244.988892,461.345673 244.864655,457.457458 246.432037,454.451233 
	C249.562195,448.447510 253.229919,442.622894 257.396027,437.286743 
	C262.333954,430.961975 262.085632,419.780029 256.444397,414.886780 
	C252.495926,411.461884 237.246613,410.427551 232.607559,414.881165 
	C226.631317,420.618530 221.059387,426.727905 218.280685,434.619324 
	C215.423950,442.732422 216.320435,450.342682 223.091064,456.657013 
	C228.885941,462.061310 235.838608,464.263092 244.348068,464.834991 
M185.949890,411.568634 
	C182.483307,417.608704 179.647064,423.944702 181.604614,431.025970 
	C184.609421,441.895660 196.142914,448.426239 207.410065,445.869446 
	C208.439697,445.635773 209.634308,444.088989 209.907806,442.949310 
	C210.701157,439.643494 210.997833,436.222260 211.609924,432.868347 
	C212.935349,425.605591 217.843842,420.468750 222.392899,415.172119 
	C224.608337,412.592590 226.320297,409.787842 223.853165,406.896484 
	C221.579697,404.232117 218.811661,401.398773 215.664780,400.177795 
	C204.739151,395.938660 192.666428,400.692261 185.949890,411.568634 
M567.000000,719.843506 
	C567.000000,718.406616 567.000000,716.969727 567.000000,715.596863 
	C565.495605,715.773621 564.280090,715.708984 563.211426,716.074036 
	C552.055237,719.885559 540.911926,723.663818 528.843567,723.095459 
	C527.957336,723.053711 526.335632,724.058838 526.205444,724.783752 
	C524.856445,732.294617 523.743774,739.847900 522.593811,747.207825 
	C539.096252,750.970337 554.789185,754.548218 569.274597,757.850830 
	C568.503662,745.284058 567.751831,733.027893 567.000000,719.843506 
M509.879089,720.936340 
	C503.148071,717.684631 496.417023,714.432922 489.454315,711.069336 
	C483.196381,722.712341 476.910736,734.406860 470.329254,746.651855 
	C487.094788,746.651855 502.934875,746.651855 518.513367,746.651855 
	C519.037109,742.534668 519.549744,738.798340 519.981873,735.052734 
	C521.302429,723.608093 521.290344,723.606689 509.879089,720.936340 
M431.000031,716.275024 
	C431.135071,717.471069 431.270111,718.667053 431.343842,719.320190 
	C442.024292,706.813782 452.721375,694.287903 463.673187,681.463806 
	C459.785370,674.704895 455.532684,667.311646 450.889709,659.239929 
	C443.739105,666.910034 436.824432,673.984009 430.390564,681.471130 
	C428.794250,683.328735 427.963043,686.581177 428.143188,689.094788 
	C428.773560,697.890137 429.999786,706.642761 431.000031,716.275024 
M171.091827,196.581528 
	C162.850479,192.211395 154.609146,187.841248 145.955811,183.252640 
	C142.876526,190.018372 139.782669,196.980606 136.533508,203.869583 
	C135.329529,206.422272 136.223328,207.706451 138.497635,208.877945 
	C151.799500,215.729706 166.301773,214.819794 181.000000,216.020309 
	C181.000000,213.398636 181.042877,211.274231 180.990097,209.152206 
	C180.907837,205.845078 181.843002,201.835602 180.296280,199.457581 
	C179.073151,197.577057 174.767960,197.701172 171.091827,196.581528 
M342.839417,344.672089 
	C343.821594,344.127258 344.872253,343.676605 345.773895,343.020996 
	C349.354095,340.417725 353.600769,337.855652 352.854095,332.725281 
	C352.212616,328.317963 348.135803,326.963318 344.252716,325.990814 
	C336.620300,324.079407 328.944458,324.231110 321.638489,326.943237 
	C316.602020,328.812805 311.759369,331.485168 307.317780,334.513947 
	C305.894745,335.484344 304.846283,339.863770 305.677887,340.742859 
	C308.140015,343.345520 311.590515,346.615967 314.718048,346.683594 
	C323.825256,346.880554 332.963409,345.644562 342.839417,344.672089 
M438.924500,114.377838 
	C437.925934,116.924942 435.094666,118.942352 437.030670,122.300552 
	C440.523315,128.358932 443.647308,134.643829 447.422119,140.514633 
	C448.255432,141.810638 451.953430,142.895966 452.980896,142.168793 
	C459.237885,137.740616 465.104370,132.760666 471.814484,127.394356 
	C462.396912,119.594475 453.523438,112.245209 444.172180,104.500237 
	C442.224060,107.990837 440.647736,110.815231 438.924500,114.377838 
M458.922485,163.721130 
	C460.435486,166.375519 459.843933,172.136414 464.558716,170.499191 
	C474.305115,167.114716 483.609375,162.456924 493.851379,157.993439 
	C488.954651,150.706543 484.695374,144.198959 480.233246,137.833557 
	C478.932343,135.977737 477.680176,134.928635 475.434418,137.816589 
	C470.507294,144.152481 465.049469,150.108795 459.454041,155.876343 
	C457.054230,158.349899 456.471130,160.345444 458.922485,163.721130 
M485.477570,176.015884 
	C480.360596,178.817429 475.367523,181.888428 470.080444,184.320114 
	C466.877045,185.793442 466.712830,188.043442 467.075806,190.745316 
	C467.460815,193.611542 469.358032,194.317047 472.041412,194.031403 
	C476.286102,193.579559 480.601318,193.627014 484.798920,192.932587 
	C491.687347,191.793015 498.549927,190.404922 505.317474,188.700867 
	C506.754700,188.338959 509.028625,185.574585 508.729706,184.927414 
	C505.697632,178.363083 502.211426,172.008530 498.762238,165.422668 
	C493.945343,169.235458 489.978027,172.375732 485.477570,176.015884 
M168.383072,162.079086 
	C166.198639,160.714066 164.014206,159.349045 161.147079,157.557404 
	C157.940659,163.147171 154.817886,168.591141 151.444153,174.472595 
	C153.210663,175.486526 154.490677,176.459473 155.932343,177.006348 
	C161.383026,179.073990 166.743546,181.737946 172.398514,182.835922 
	C185.311966,185.343216 183.789429,188.309174 186.069885,175.088715 
	C186.151001,174.618576 186.462814,174.190811 186.648560,173.735733 
	C187.907761,170.650635 185.941452,169.911163 183.561172,168.962906 
	C178.629074,166.998032 173.836090,164.683945 168.383072,162.079086 
M437.540314,639.969177 
	C425.170593,652.344116 422.082214,663.881958 426.343384,673.296631 
	C432.849701,667.968689 440.380890,661.959412 447.653503,655.651978 
	C448.590088,654.839722 448.710785,652.338684 448.308929,650.865601 
	C446.864105,645.569580 445.033173,640.378906 443.013458,634.109436 
	C441.117676,636.143555 439.583099,637.790161 437.540314,639.969177 
M172.518570,143.986115 
	C171.410202,145.527313 170.301819,147.068497 168.951096,148.946686 
	C175.366714,153.145416 181.931168,156.111710 189.516251,155.885406 
	C190.762573,155.848236 192.368423,154.579086 193.061447,153.429291 
	C193.628525,152.488434 193.604019,150.468384 192.945923,149.629730 
	C188.873795,144.440201 184.548248,139.449493 180.036514,134.070435 
	C177.679520,137.227051 175.350891,140.345703 172.518570,143.986115 
M260.592407,407.906006 
	C259.776215,404.095459 259.319885,403.830475 254.395248,404.947601 
	C256.523285,406.119019 258.152649,407.015930 260.592407,407.906006 
z"/>
<path fill="#FFFFFF" opacity="1.000000" stroke="none" 
	d="
M532.468628,916.000000 
	C539.292480,912.213135 546.561096,908.378479 553.904480,904.693054 
	C554.953613,904.166504 556.403809,904.093567 557.602661,904.266418 
	C565.762146,905.442688 573.865479,907.221069 582.061279,907.879211 
	C592.437195,908.712402 602.903442,909.190491 613.292114,908.798340 
	C619.274841,908.572449 625.264526,906.597046 631.068787,904.815308 
	C632.708740,904.311829 634.949402,901.483887 634.699158,900.132141 
	C634.345398,898.221680 632.233215,895.819458 630.342712,895.169861 
	C625.415588,893.476990 620.200012,892.623718 615.378845,891.500671 
	C617.614258,885.147827 620.312744,878.949036 621.913635,872.478638 
	C623.268555,867.002136 623.235046,861.194519 624.032043,855.564026 
	C624.892883,849.483093 626.017578,843.439697 627.001404,837.375793 
	C627.452209,834.597412 629.055664,834.001404 631.776306,833.918457 
	C648.278564,833.415283 664.813477,833.160339 681.256042,831.821899 
	C691.794861,830.964050 702.778809,831.141418 712.453796,825.742371 
	C714.338867,824.690369 716.825989,822.197021 716.658630,820.620972 
	C716.446106,818.618896 714.150635,815.932922 712.149353,815.207092 
	C707.427063,813.494507 702.346985,812.768250 698.132629,811.807434 
	C704.516724,802.980286 711.398193,794.162354 717.439392,784.802002 
	C720.227234,780.482605 721.372681,775.103271 723.631409,770.102295 
	C724.000000,818.603577 724.000000,867.207214 724.000000,916.000000 
	C660.312561,916.000000 596.624939,916.000000 532.468628,916.000000 
z"/>
<path fill="#D6CEC7" opacity="1.000000" stroke="none" 
	d="
M611.741333,819.225647 
	C607.281738,812.285339 601.359253,809.713989 593.048462,811.419800 
	C603.288574,819.368225 611.446838,828.445618 614.401367,840.942444 
	C617.909119,855.779358 617.654663,870.323975 609.053589,883.718567 
	C603.292664,892.690063 594.418335,896.645630 584.385010,897.857178 
	C578.143005,898.610962 571.735046,898.052124 565.403809,897.946960 
	C564.259338,897.927979 563.125732,897.252319 561.681152,896.779846 
	C574.023315,877.517578 573.173279,858.783020 561.617920,840.265686 
	C557.728760,834.033386 549.473389,828.976257 544.599060,829.667358 
	C546.820068,832.394165 548.673035,835.072205 550.921143,837.362549 
	C563.731995,850.414246 565.590515,871.646973 555.482300,887.158447 
	C549.735107,895.977722 542.669861,902.735229 532.161316,905.422363 
	C519.090027,908.764832 503.705444,902.335449 498.185303,890.123535 
	C495.111511,883.323608 493.544525,875.842651 491.205688,868.372314 
	C482.226318,879.524780 468.941772,883.085938 454.852051,880.580017 
	C440.057953,877.948853 433.331848,865.367004 427.158234,852.260559 
	C425.289886,862.389221 418.271210,857.484985 414.528595,856.676147 
	C389.411407,851.247253 364.374542,845.361816 339.536346,838.776794 
	C331.673401,836.692200 324.136444,832.621826 317.081940,828.403809 
	C303.056396,820.017578 304.697449,807.645874 313.943481,796.444031 
	C323.495605,784.871216 336.020782,777.004333 347.699707,768.052490 
	C350.555969,765.863098 353.231171,763.421814 356.185547,761.379822 
	C360.333588,758.512817 359.561981,754.908630 359.199188,750.559448 
	C358.277405,739.508484 358.337341,728.375671 357.999481,717.275757 
	C357.333862,695.408936 356.593018,673.544067 356.020508,651.674805 
	C355.572968,634.578064 355.368134,617.475037 354.967010,600.376953 
	C354.895142,597.313232 354.392426,594.259583 354.088654,591.201233 
	C353.484558,591.016907 352.880432,590.832581 352.276306,590.648254 
	C350.509247,594.693359 348.742218,598.738464 346.405548,604.087585 
	C346.405548,599.076477 346.405548,595.297485 346.405548,591.518494 
	C345.889496,591.218506 345.373444,590.918518 344.857391,590.618530 
	C343.731171,591.749207 342.170441,592.682678 341.552673,594.044067 
	C338.606720,600.535828 339.429871,607.070679 343.376984,612.664978 
	C346.709229,617.387756 345.787811,622.675415 346.838440,627.673218 
	C347.024261,628.557190 345.176208,630.830444 344.244720,630.843567 
	C329.722168,631.047058 315.194000,631.087158 300.673676,630.815125 
	C299.292267,630.789307 297.521301,628.658569 296.683838,627.100464 
	C294.738556,623.481262 293.253540,619.614624 291.345581,615.315674 
	C287.566162,619.100891 288.490143,623.313110 289.211670,626.548950 
	C293.354584,645.128601 297.828369,663.642090 302.605804,682.070190 
	C306.766388,698.118835 311.545563,714.006226 315.917419,730.001465 
	C318.182892,738.290039 323.096100,744.015808 330.959381,747.553223 
	C337.479523,750.486572 343.766144,753.938965 351.235809,759.031433 
	C349.669800,759.954285 348.024658,760.766052 346.550385,761.817505 
	C335.256836,769.871765 323.659363,777.554626 312.878998,786.248962 
	C308.057709,790.137268 304.501221,795.833984 301.114868,801.181213 
	C298.646820,805.078430 295.964111,807.489258 291.324310,808.391907 
	C272.302460,812.092224 253.355240,816.176697 234.330276,819.859985 
	C232.396896,820.234375 230.125687,818.863708 227.006073,818.036194 
	C227.012955,818.020447 226.341415,819.148254 226.015366,820.368347 
	C222.081024,835.091125 208.023132,848.464417 191.939819,847.940613 
	C183.701767,847.672241 176.272324,844.987122 170.338486,838.876831 
	C167.786652,836.249084 165.005417,833.844055 161.830368,830.871643 
	C158.540985,852.313477 146.280396,865.437012 127.637169,870.734558 
	C109.173592,875.981018 90.776543,870.506226 83.698624,849.810181 
	C79.842751,838.535400 80.425491,826.225403 85.620811,815.090515 
	C88.962288,807.929016 93.725525,801.430542 97.857597,794.638611 
	C98.195305,794.083496 98.686966,793.596741 98.906815,793.003845 
	C99.063461,792.581543 98.883881,792.034424 98.835335,791.226746 
	C94.160614,791.053040 90.697105,793.487427 87.941223,796.655396 
	C79.318542,806.567322 74.502045,817.956482 73.878204,831.331787 
	C73.243462,844.940796 76.327850,857.306702 84.277718,868.807068 
	C65.988304,872.189758 49.744968,869.960938 36.515598,856.876099 
	C30.267418,850.696228 27.546469,842.702148 26.944374,833.865845 
	C26.055126,820.815369 28.264559,808.529785 36.136257,797.928650 
	C40.450863,792.117920 45.847298,787.110229 50.758259,781.742676 
	C51.927006,780.465271 53.105156,779.196533 54.278984,777.923767 
	C53.994865,777.480652 53.710743,777.037476 53.426624,776.594299 
	C48.176987,778.900024 42.927349,781.205688 37.677711,783.511414 
	C37.177071,782.956909 36.676434,782.402405 36.175797,781.847839 
	C39.834885,776.016846 43.128471,769.914490 47.219704,764.404297 
	C61.006866,745.835327 79.794647,735.409668 102.479103,732.058228 
	C112.367538,730.597412 122.362915,729.564636 132.344833,729.111877 
	C143.355911,728.612488 154.548676,727.893494 165.405975,729.278870 
	C179.568207,731.086060 193.532043,734.637024 207.479187,737.877014 
	C217.449524,740.193237 227.248352,743.245300 237.136780,745.920715 
	C237.897079,746.126404 238.761353,745.947754 240.810822,745.947754 
	C234.694778,738.498474 226.087112,737.032166 219.041718,732.218445 
	C232.177094,724.960632 244.992905,728.435669 257.816193,733.427063 
	C258.001434,732.800049 258.186676,732.172974 258.371918,731.545898 
	C255.844711,730.016541 253.496490,727.880432 250.756546,727.072083 
	C242.713837,724.699402 240.843781,718.935364 239.837814,711.394165 
	C237.377884,692.953369 234.024750,674.632935 231.135452,656.247742 
	C229.004272,642.686646 227.163467,629.079102 224.941574,615.533508 
	C223.920990,609.311523 222.296509,603.188599 220.945877,597.020752 
	C220.343292,596.865662 219.740707,596.710571 219.138123,596.555542 
	C217.903351,598.807556 216.668579,601.059570 214.927490,604.235046 
	C213.928772,600.279724 213.268982,597.666687 212.251038,593.635254 
	C208.137222,600.896606 210.456268,606.860962 212.039413,612.798096 
	C211.632660,613.111328 211.225906,613.424561 210.819153,613.737793 
	C202.494354,607.288757 194.169556,600.839722 185.844757,594.390686 
	C186.114853,593.906494 186.384933,593.422241 186.655029,592.937988 
	C192.850204,595.156250 199.045380,597.374451 205.240540,599.592712 
	C205.480042,599.086243 205.719543,598.579773 205.959045,598.073303 
	C202.266968,595.854858 198.495926,593.756470 194.900253,591.391418 
	C188.634354,587.270020 182.239456,583.287964 176.339722,578.682495 
	C170.376587,574.027527 169.940048,566.543274 167.539169,559.387756 
	C177.740692,563.761475 187.284943,567.853333 196.829193,571.945251 
	C197.163345,571.291138 197.497482,570.637024 197.831635,569.982910 
	C193.653442,567.557007 189.444199,565.182739 185.303848,562.693909 
	C177.687424,558.115540 170.471664,553.041138 165.194672,545.692078 
	C164.731079,545.046448 164.042664,544.276184 164.081955,543.599976 
	C164.469727,536.923523 164.989273,530.254700 165.526138,522.827454 
	C175.548462,529.298462 184.984467,535.407166 196.832825,535.156372 
	C190.050903,530.820374 183.240448,526.528076 176.502060,522.125488 
	C174.048126,520.522156 171.338821,519.001953 169.549744,516.792908 
	C168.277969,515.222656 167.677765,512.468018 167.965775,510.408051 
	C168.569473,506.089966 169.956741,501.881439 171.118317,497.244507 
	C179.150757,501.078949 185.614319,507.741669 195.316925,507.882050 
	C192.681519,505.562531 190.046616,503.242432 187.410568,500.923645 
	C184.689316,498.529877 182.155731,495.867035 179.202667,493.805084 
	C174.276123,490.365295 174.923599,486.519135 177.426743,482.021912 
	C181.062607,475.489594 184.471359,468.830841 188.086273,462.020020 
	C193.712982,463.741455 199.615646,465.547302 205.518311,467.353149 
	C205.755310,466.843628 205.992294,466.334137 206.229279,465.824646 
	C199.062805,459.195312 188.457520,456.570923 182.622925,446.421356 
	C192.307907,451.234802 201.061188,454.861786 210.661560,449.130188 
	C212.416672,451.970581 214.224380,454.666077 215.801559,457.490356 
	C221.195053,467.148621 230.375534,469.993225 240.409103,470.882080 
	C243.667664,471.170746 245.605728,471.903625 247.546875,474.831879 
	C257.273895,489.505219 277.048248,492.895355 291.037354,480.559448 
	C298.850220,473.669861 304.284210,465.548065 307.044800,455.482574 
	C310.363556,443.381927 317.156219,434.016388 329.994568,431.192017 
	C341.264496,428.712646 352.654968,429.947571 363.122467,434.777283 
	C371.954651,438.852478 380.319061,443.996826 388.659210,449.049713 
	C391.199860,450.588928 393.112946,453.284180 395.015778,455.685791 
	C395.617981,456.445801 395.743286,458.247894 395.258881,459.105194 
	C387.748077,472.397247 378.027313,483.496216 361.935516,485.298767 
	C353.670471,486.224579 349.928375,490.995728 345.913940,496.995880 
	C334.066132,514.704346 322.123260,532.355957 306.992279,547.575867 
	C297.244843,557.380615 286.200653,560.024475 272.892487,556.036133 
	C250.652893,549.371155 231.819366,537.496765 217.347855,519.519714 
	C210.244476,510.695648 205.046036,500.343018 198.920578,490.723450 
	C197.276031,488.140808 196.565811,484.464539 192.134705,484.806976 
	C191.498535,484.856140 190.708466,483.023621 190.004196,482.051392 
	C189.307541,481.089691 188.629303,480.114655 187.942978,479.145477 
	C187.296021,480.311096 186.226028,481.422577 186.068924,482.650818 
	C184.788574,492.660065 189.640091,499.560303 197.547806,504.918976 
	C198.960968,505.876648 200.157135,507.254456 201.212341,508.624084 
	C207.799347,517.173950 213.509186,526.574951 221.030334,534.192566 
	C235.892700,549.245483 254.119690,559.266724 274.840149,563.716370 
	C288.749603,566.703369 301.248932,562.232788 311.765961,552.679565 
	C315.585419,549.210205 318.981171,545.271606 322.833008,541.842285 
	C323.857056,540.930603 326.266449,540.336182 327.341339,540.908325 
	C341.016693,548.187195 355.924713,551.550781 370.806213,555.065857 
	C381.529205,557.598633 392.247681,558.252502 402.912628,555.035034 
	C412.642975,552.099548 420.170380,545.838684 426.369171,538.074463 
	C434.122253,528.363342 442.053101,518.710999 448.805115,508.317352 
	C452.402405,502.779907 454.028015,495.829102 455.801666,489.314270 
	C456.391479,487.147797 454.670868,484.352325 453.731628,480.806732 
	C449.746002,488.610992 446.405548,495.037872 443.168274,501.516296 
	C437.635895,512.587769 429.827362,521.999573 422.146423,531.601746 
	C415.837769,539.488342 408.239868,544.859985 398.830933,547.956604 
	C387.063995,551.829163 375.443848,549.527771 364.055786,546.426147 
	C352.478790,543.273010 341.119843,539.319336 328.839508,535.456421 
	C330.192352,533.046875 331.086456,531.113953 332.278503,529.386719 
	C339.879822,518.372620 347.410614,507.303864 355.325287,496.517792 
	C356.655792,494.704559 359.686005,493.354370 362.023315,493.201141 
	C371.650940,492.570099 378.998627,487.310425 385.810974,481.517151 
	C397.985443,471.163940 407.407379,458.513275 413.958221,443.886139 
	C415.925446,439.493683 418.331757,434.809753 413.904175,429.073212 
	C411.794342,432.778046 410.023621,435.887390 408.252869,438.996735 
	C407.698090,438.826111 407.143280,438.655487 406.588470,438.484863 
	C407.676788,434.545959 408.765106,430.607025 409.842896,426.706207 
	C406.256348,426.349731 403.320129,429.159271 403.091278,433.963043 
	C402.912750,437.710297 403.842010,441.517639 403.587006,445.251038 
	C403.444641,447.335693 401.890686,449.323944 400.722534,451.909668 
	C388.527740,435.349121 371.904053,428.795685 353.893188,425.083801 
	C343.668457,422.976532 333.384552,422.942902 323.299377,426.823151 
	C317.631744,429.003693 312.595398,431.632599 309.391937,437.026062 
	C308.915100,437.828827 307.991119,438.366058 306.894989,439.375031 
	C303.398834,432.193298 298.978546,425.569366 290.706726,425.240875 
	C283.364441,424.949280 275.941833,426.680023 269.106598,427.455444 
	C267.223969,421.704681 264.996643,414.901031 262.839050,408.310333 
	C271.364990,410.528442 279.927094,407.419708 288.449249,403.075989 
	C286.293915,403.075989 284.130066,402.955994 281.985626,403.108765 
	C279.710541,403.270844 277.452545,403.941833 275.189636,403.929504 
	C272.943634,403.917297 270.700775,403.331207 267.871094,402.909546 
	C273.422485,400.783356 278.352600,398.895081 283.282745,397.006836 
	C283.091217,396.223999 282.899689,395.441162 282.708160,394.658325 
	C275.477112,395.266205 268.254700,396.019318 261.013031,396.447784 
	C250.293335,397.082001 239.561264,397.738770 228.831528,397.792023 
	C226.449509,397.803833 224.197739,394.806244 221.638229,394.124390 
	C215.410492,392.465363 209.037277,391.352478 202.319229,389.934479 
	C207.079224,389.612823 211.625854,389.424316 216.145264,388.966797 
	C220.656021,388.510101 225.139481,387.784027 231.055283,386.983948 
	C228.949677,385.838318 228.217377,385.117615 227.442841,385.068970 
	C220.682404,384.644409 213.915085,384.326141 207.148499,384.003174 
	C196.295853,383.485138 185.457184,381.990295 175.825150,377.033936 
	C169.262543,373.656952 163.817734,368.107697 157.873108,363.529724 
	C158.082993,363.007568 158.292862,362.485382 158.502731,361.963196 
	C166.260818,361.963196 174.018890,361.963196 181.776962,361.963196 
	C181.839005,361.439056 181.901047,360.914948 181.963089,360.390808 
	C177.064056,359.264709 172.211609,357.836761 167.256821,357.071899 
	C154.877701,355.160950 145.051453,349.983490 139.899689,337.784912 
	C137.576981,332.285065 134.664474,327.034302 131.438889,320.492981 
	C142.638428,325.392090 152.437607,330.467438 164.097977,329.959015 
	C160.889420,328.022827 157.687805,326.075012 154.470947,324.152710 
	C146.500916,319.390076 138.308563,314.951782 130.678680,309.696259 
	C128.336655,308.083069 126.780159,304.400269 126.157692,301.397034 
	C124.408249,292.956451 123.332466,284.376251 121.994652,275.874146 
	C132.449142,280.515533 142.776703,285.100555 153.104263,289.685577 
	C153.485153,289.117950 153.866028,288.550323 154.246902,287.982697 
	C153.325226,287.031189 152.576904,285.632141 151.454987,285.197540 
	C140.499374,280.953644 132.332001,272.722198 123.356873,265.666595 
	C122.524178,265.011963 121.975418,263.314026 122.118919,262.207397 
	C123.288757,253.186249 124.654823,244.190536 126.055687,234.535721 
	C134.948151,240.528595 143.316528,246.003738 153.997498,246.185776 
	C149.373734,242.798996 144.707947,239.467712 140.140076,236.007156 
	C136.743896,233.434250 133.416504,230.760986 130.195450,227.974121 
	C129.509705,227.380814 128.926010,225.976303 129.135361,225.161346 
	C130.055847,221.578262 131.284286,218.074295 132.628723,213.821686 
	C147.628555,222.586868 162.672684,229.638062 179.862595,230.903839 
	C180.561081,248.800583 182.956436,265.930603 189.027115,282.323853 
	C194.223343,296.355774 200.893585,309.643829 211.241470,320.691010 
	C223.016953,333.262299 238.395660,339.195709 254.657639,342.878632 
	C267.258057,345.732330 280.129639,346.047424 292.959869,343.970490 
	C294.523407,343.717407 296.011780,342.999878 296.281128,342.911041 
	C302.983734,347.302704 309.075134,351.293884 316.023712,355.846710 
	C304.702667,359.233276 293.599213,363.742065 282.063080,365.695007 
	C268.649963,367.965759 254.862976,368.723145 241.228653,368.822632 
	C222.710983,368.957764 205.139359,364.509796 190.386719,352.626831 
	C180.667496,344.798248 174.870041,334.099487 174.226242,321.702606 
	C173.670227,310.996246 175.062103,300.188751 175.625885,288.756470 
	C173.878998,290.226257 171.852539,291.931305 169.622604,293.807526 
	C167.323807,286.937042 169.928375,281.048553 174.014099,275.323547 
	C165.075546,276.115540 160.185257,287.446564 165.100021,295.902405 
	C167.193161,299.503632 167.661331,302.555573 167.238846,306.837006 
	C164.446182,335.136292 176.273560,356.727936 204.343613,368.204376 
	C214.493774,372.354279 224.943741,374.002136 235.742477,375.131989 
	C258.867218,377.551483 281.230713,374.598297 303.034424,366.980347 
	C310.400299,364.406830 317.521637,361.119080 324.701385,358.033630 
	C328.228851,356.517792 331.658264,355.360229 335.437256,357.177216 
	C351.934998,365.109558 369.221710,369.818359 387.571472,371.169189 
	C400.793762,372.142578 413.931671,373.056763 426.930573,369.947601 
	C437.273376,367.473694 445.997070,361.857300 454.323151,355.327698 
	C462.371887,349.015594 468.670197,341.335602 473.653656,332.609863 
	C479.035339,323.186798 480.962646,312.810486 481.155396,301.948822 
	C481.224274,298.067749 482.470184,293.909790 484.244507,290.419983 
	C487.725494,283.573364 485.834930,271.107178 479.793793,266.448792 
	C478.635803,265.555878 476.961151,265.333008 475.442413,264.770477 
	C477.412689,270.984650 479.369720,276.578979 480.855438,282.295807 
	C481.180450,283.546295 479.824524,285.233612 479.127991,287.012939 
	C474.949677,284.759430 474.380615,278.182465 468.082306,279.214569 
	C468.164612,280.136719 467.954987,281.098877 468.340546,281.624237 
	C478.366852,295.286377 476.149292,309.762665 469.542267,323.426147 
	C462.188751,338.633423 450.569275,350.591431 435.244629,358.237488 
	C420.636597,365.526093 405.058929,365.657440 389.088409,364.255005 
	C374.145813,362.942871 359.748199,359.847534 345.642487,355.001373 
	C344.434998,354.586517 343.276917,354.027924 340.971802,353.067963 
	C350.664429,349.240540 358.283966,344.265472 360.475830,334.940582 
	C368.564117,335.312073 376.093353,336.325134 383.534149,335.875183 
	C406.326630,334.497009 426.884949,326.785248 442.929016,310.266449 
	C455.802094,297.012482 462.916412,280.303894 467.048401,262.289490 
	C470.337646,247.949142 470.045563,233.440109 470.001556,218.912567 
	C469.991058,215.447449 470.000000,211.982285 470.000000,208.338318 
	C485.355530,207.807587 498.958313,202.882034 511.800537,195.506073 
	C513.630005,199.397552 513.630005,199.397552 495.437775,218.120468 
	C504.626007,216.238449 511.429657,211.922485 517.655518,206.088043 
	C519.962769,213.543335 522.245422,220.639481 524.299927,227.801117 
	C524.696228,229.182709 524.774963,231.240082 524.022461,232.274170 
	C517.944092,240.627182 510.390442,247.347641 501.085876,252.003754 
	C499.608887,252.742874 498.242889,253.703766 495.703033,255.241928 
	C502.992371,257.054016 508.027740,254.940491 512.734802,252.002335 
	C517.413574,249.081863 521.853088,245.778183 527.449280,241.916855 
	C526.949951,252.241577 526.587891,261.863739 525.916931,271.464294 
	C525.807312,273.032654 524.546387,274.681885 523.456848,275.994293 
	C516.366028,284.535645 507.197388,290.250488 497.300323,294.951233 
	C495.556824,295.779327 493.884796,296.758667 492.192657,297.691498 
	C492.130188,297.725952 492.203949,298.007416 492.213104,298.155884 
	C503.734833,298.749023 513.179749,293.431000 522.320618,287.249420 
	C522.747131,287.452362 523.173645,287.655334 523.600220,287.858276 
	C521.794678,293.723938 519.519714,299.491760 518.273193,305.473907 
	C514.779663,322.239044 500.528198,325.715118 487.639069,330.983856 
	C485.443451,331.881409 483.238556,332.756378 479.692505,334.183136 
	C489.169525,337.713959 496.270813,333.774536 505.207092,330.979492 
	C502.073608,335.774597 499.624603,339.610443 497.087280,343.386871 
	C491.692322,351.416351 483.083130,354.363373 474.500061,356.850067 
	C467.650574,358.834564 460.464905,359.649567 453.445923,361.069946 
	C452.581238,361.244934 451.824280,361.952362 450.350861,362.793579 
	C456.692627,368.274384 463.995514,364.787811 471.451569,366.580414 
	C455.185333,377.325867 438.585205,384.276550 419.695129,385.188812 
	C419.695129,383.243164 419.695129,381.701385 419.695129,380.016907 
	C404.937653,387.057922 390.480194,393.955780 376.022705,400.853607 
	C376.180389,401.443115 376.338074,402.032593 376.495728,402.622070 
	C383.396790,401.377869 390.297852,400.133667 397.198914,398.889465 
	C397.434296,399.335480 397.669678,399.781464 397.905090,400.227478 
	C393.973633,402.495239 390.042175,404.762970 386.018646,407.083832 
	C391.944824,408.840057 395.673645,408.278809 400.835632,403.486023 
	C404.557983,400.029907 407.473083,395.704376 411.065125,391.385620 
	C425.119324,394.294373 438.962524,388.881744 454.129211,385.307251 
	C450.252502,393.925537 439.872711,394.440186 436.795746,402.049438 
	C437.165833,402.591400 437.535919,403.133362 437.906036,403.675323 
	C443.509003,400.395294 449.111969,397.115234 454.789978,393.791260 
	C459.380280,399.334045 459.416962,404.462982 453.928253,409.446808 
	C450.193390,412.838104 445.879517,415.592224 441.820709,418.626129 
	C440.285645,419.773651 438.739899,420.906860 437.472321,422.500793 
	C445.866943,422.153107 451.924042,417.029144 458.550903,412.386353 
	C459.044952,416.485870 459.465912,420.454132 460.016113,424.404419 
	C460.517792,428.006012 459.310242,430.675201 456.533600,433.094116 
	C453.052460,436.126831 449.966400,439.613037 446.709808,442.903503 
	C447.114319,443.401825 447.518829,443.900116 447.923370,444.398407 
	C450.751343,442.984100 453.579346,441.569763 455.289032,440.714722 
	C458.517578,445.003906 461.339172,449.301636 464.729828,453.090088 
	C467.652771,456.355988 467.555695,458.891602 464.624603,461.944153 
	C461.229919,465.479553 458.092804,469.262268 455.226105,473.400024 
	C462.415283,472.552063 465.375153,465.770416 471.323608,461.789459 
	C475.083618,470.285065 478.839905,478.583069 482.369873,486.976227 
	C482.835297,488.082886 482.590515,489.967102 481.917206,490.994934 
	C477.985535,496.996338 473.834930,502.854614 469.742035,508.749908 
	C468.728973,510.209045 467.655762,511.626404 467.185089,513.563416 
	C475.410767,511.102203 479.665100,504.286804 485.011108,497.522034 
	C487.135101,507.465790 490.065277,516.724609 484.647949,525.588440 
	C479.745972,533.609131 474.130951,541.194031 468.769440,549.060425 
	C476.779694,548.179199 480.730164,541.141541 486.303436,536.354004 
	C488.050171,544.854675 484.869934,554.797668 475.813568,567.389465 
	C469.245087,576.522095 460.748260,583.601746 450.391815,588.384705 
	C450.558624,588.779602 450.725464,589.174500 450.892273,589.569397 
	C454.770203,588.636230 458.805603,588.102844 462.480682,586.654846 
	C465.986084,585.273682 469.115875,582.939209 472.715698,581.475586 
	C460.118286,599.283936 443.500275,611.716248 422.220703,619.440308 
	C421.130920,608.369812 420.087585,597.771118 418.936920,586.082092 
	C413.856812,590.509827 412.954437,595.627319 413.151550,600.413696 
	C413.700073,613.732422 414.967377,627.021484 415.952332,640.322205 
	C416.633545,649.521484 417.201538,658.731018 418.027466,667.917358 
	C419.233002,681.325500 420.571838,694.722412 421.954163,708.113770 
	C423.008453,718.327209 424.218506,728.524658 425.396698,739.063904 
	C420.083801,742.007874 412.905792,743.144226 410.102478,751.022278 
	C420.315186,746.221619 430.500427,743.148987 440.999634,749.899841 
	C435.488281,753.377441 430.023499,756.825684 424.558716,760.273865 
	C424.808929,760.855164 425.059143,761.436401 425.309357,762.017639 
	C427.921204,761.674500 430.527344,761.278625 433.145844,760.997131 
	C445.702209,759.647583 458.235199,757.900757 470.827637,757.115173 
	C484.395264,756.268799 498.055725,755.550171 511.611298,756.174133 
	C534.896484,757.246155 557.728577,761.030579 578.818787,771.942566 
	C595.466553,780.555969 607.885132,793.153442 615.005737,810.547363 
	C616.919250,815.221619 617.501221,820.440979 618.694458,825.410156 
	C618.165955,825.628540 617.637451,825.846924 617.108948,826.065308 
	C615.405457,823.873596 613.701904,821.681885 611.741333,819.225647 
z"/>
<path fill="#FFFFFF" opacity="1.000000" stroke="none" 
	d="
M317.980347,143.301056 
	C318.998932,161.521667 319.954926,179.272629 321.020569,197.017014 
	C321.581482,206.356781 322.368378,215.682709 322.992249,225.018982 
	C324.022186,240.433197 324.978516,255.852341 326.013184,271.266235 
	C326.628723,280.436523 327.317596,289.602081 328.005920,298.767303 
	C328.469757,304.943329 328.990143,311.115143 329.521698,317.743439 
	C325.005432,319.179291 319.778778,319.991669 315.471405,322.428833 
	C310.268646,325.372589 305.631561,329.455353 301.141083,333.481689 
	C296.145081,337.961304 290.082428,338.547852 283.999390,338.945984 
	C266.474762,340.093018 249.601852,336.618164 233.659851,329.714966 
	C221.657867,324.517853 212.688293,315.314331 205.995453,304.007629 
	C196.539383,288.032867 190.545120,270.642639 188.327011,252.433868 
	C186.706680,239.132233 188.108597,225.474289 187.969910,211.977173 
	C187.812881,196.695587 190.495346,181.760880 195.243042,167.446869 
	C199.002884,156.111176 204.236710,145.092926 210.163864,134.702576 
	C214.780518,126.609520 220.815643,119.051857 227.382385,112.404091 
	C239.641235,99.994003 253.936996,91.724014 272.447418,91.787231 
	C286.046661,91.833687 298.492462,94.118942 309.792419,101.921753 
	C312.987488,104.127998 314.891083,106.512672 315.073334,110.588783 
	C315.520630,120.592171 316.325928,130.580032 317.049286,140.569656 
	C317.105103,141.340683 317.647247,142.076492 317.980347,143.301056 
M308.930328,287.612213 
	C308.291565,292.032806 306.790833,296.568542 307.359680,300.827850 
	C307.666962,303.128448 311.303131,305.346039 313.900391,306.736145 
	C314.587646,307.104004 318.038910,304.492096 318.391388,302.854614 
	C319.170380,299.235474 319.403412,295.248627 318.714844,291.629547 
	C317.922302,287.464264 313.541260,285.697327 308.930328,287.612213 
z"/>
<path fill="#FFFFFF" opacity="1.000000" stroke="none" 
	d="
M322.000000,136.023254 
	C321.333344,125.379822 320.518860,115.220398 320.127899,105.044708 
	C320.052063,103.071037 321.112762,100.516212 322.525726,99.110474 
	C331.393982,90.287613 342.185852,85.678185 354.630981,83.872520 
	C373.398895,81.149460 389.865112,86.285988 404.852661,97.047699 
	C414.060303,103.659210 421.422363,112.180588 427.949646,121.432976 
	C439.782959,138.206635 449.769562,156.038040 455.931000,175.610535 
	C459.102753,185.686005 460.698608,196.393158 461.819397,206.941010 
	C462.967865,217.749252 462.577301,228.715149 463.022156,239.605453 
	C463.605713,253.890884 459.824738,267.282959 453.831635,279.915802 
	C449.798950,288.416412 445.379028,297.346619 438.927979,303.921906 
	C431.842194,311.144104 422.749817,316.947571 413.588867,321.451294 
	C400.720245,327.777863 386.689270,330.633881 372.088470,330.087494 
	C365.401855,329.837280 359.607697,327.937256 353.836578,324.582275 
	C349.378845,321.990814 344.222504,320.111450 339.148651,319.233246 
	C335.468506,318.596252 334.260986,316.874725 334.055969,313.977539 
	C333.254822,302.656219 332.797760,291.310242 331.968994,279.991272 
	C330.760223,263.482819 329.309662,246.992188 328.029144,230.488739 
	C327.583740,224.748322 327.329041,218.992950 327.001709,213.243576 
	C326.328156,201.412750 325.750092,189.575729 324.974121,177.751678 
	C324.071411,163.995834 322.998871,150.251129 322.000000,136.023254 
M344.491913,305.000000 
	C347.733337,305.519531 348.896484,303.696655 348.979126,300.867371 
	C349.066498,297.875336 348.914368,294.875671 349.023438,291.885040 
	C349.137360,288.762268 348.597351,286.444183 344.804047,285.939514 
	C341.043030,285.439148 338.553162,286.744324 338.320068,290.454803 
	C338.088593,294.139771 338.866852,297.876404 338.906586,301.593536 
	C338.943970,305.092010 341.121765,305.142273 344.491913,305.000000 
z"/>
<path fill="#D6CEC7" opacity="1.000000" stroke="none" 
	d="
M392.924255,39.013977 
	C373.625305,45.452106 358.618591,57.625118 345.603119,72.207306 
	C340.872345,77.507561 335.666534,81.401871 329.684296,84.961342 
	C324.375427,88.120132 319.886749,92.657410 315.099335,96.534927 
	C311.709167,95.014503 308.007355,93.395859 304.341705,91.699043 
	C300.400208,89.874557 297.990936,87.025887 295.614594,83.096130 
	C292.231232,77.501106 287.272980,72.206757 281.768097,68.695992 
	C273.066895,63.146786 263.507690,58.825733 253.986206,54.743942 
	C250.676407,53.325058 246.400726,54.159206 242.229141,55.039028 
	C259.330841,63.865707 277.021027,71.234314 291.751984,86.397400 
	C287.096375,85.817963 283.839172,85.202827 280.559418,85.038849 
	C261.124237,84.067207 244.364838,90.665039 229.498352,102.941643 
	C216.513626,113.664307 206.363235,126.546127 198.773956,141.521988 
	C198.490280,142.081757 197.889603,142.480835 196.800034,143.620972 
	C194.073914,139.143906 191.286407,135.051910 188.986984,130.701904 
	C180.905029,115.412659 172.657288,100.130333 169.484924,82.879929 
	C167.629517,72.790810 165.602798,62.648357 169.225662,52.379810 
	C174.175018,38.351559 184.790634,30.418118 198.371323,27.222507 
	C225.798645,20.768709 250.914642,26.697187 273.382660,43.843193 
	C289.671082,56.273342 302.685150,71.512543 313.040497,89.113739 
	C313.443695,89.799065 314.041870,90.369698 315.066650,91.630318 
	C316.191925,89.863510 317.172485,88.492401 317.981567,87.026627 
	C323.978302,76.162521 329.245026,64.819992 336.060974,54.499474 
	C349.717102,33.821758 368.214233,18.398624 391.940643,10.826294 
	C407.394592,5.894127 422.719116,7.826192 434.736115,20.367363 
	C442.113647,28.066706 444.928833,37.805344 446.104034,48.349655 
	C448.589966,70.654121 442.305267,90.959358 433.055908,110.719521 
	C432.717194,111.443085 432.217957,112.091492 431.955963,112.513344 
	C423.345154,105.222961 415.111542,97.604080 406.206146,90.874138 
	C394.758026,82.222649 381.625427,77.481392 367.155670,77.030144 
	C361.296265,76.847420 355.426422,77.000000 349.773438,77.000000 
	C360.031799,65.578674 371.704041,54.846264 385.636749,46.737423 
	C388.312256,45.180294 390.965790,43.562962 393.462860,41.744606 
	C393.863251,41.453026 393.384369,39.953983 392.924255,39.013977 
z"/>
<path fill="#D6CEC7" opacity="1.000000" stroke="none" 
	d="
M644.592346,824.723145 
	C638.596436,825.817688 632.979492,826.715210 627.316101,827.620178 
	C627.003113,809.846436 618.847290,795.251099 607.672974,782.688232 
	C601.630920,775.895142 592.865723,771.522827 585.316589,766.075500 
	C584.929077,765.795898 584.436707,765.643555 583.974243,765.488403 
	C575.500000,762.645752 572.966675,756.113403 572.992188,747.935364 
	C573.024475,737.606140 573.070862,727.275940 572.956543,716.947937 
	C572.922485,713.869629 573.606689,712.661072 577.092285,711.727417 
	C587.894409,708.833740 598.455688,705.041321 610.395264,701.182495 
	C607.870911,735.867065 612.541992,768.378296 627.442261,798.926758 
	C627.985962,798.823242 628.529724,798.719727 629.073486,798.616211 
	C626.697754,788.130127 623.890381,777.718445 622.066528,767.137268 
	C620.207336,756.350342 618.785889,745.427795 618.146667,734.507568 
	C617.486938,723.237366 618.000000,711.898438 618.000000,699.658264 
	C622.284973,699.429626 626.310059,699.080872 630.338928,699.028748 
	C638.001343,698.929565 645.666809,699.069214 653.329102,698.964539 
	C656.216003,698.925110 657.932983,699.354492 658.097961,702.937073 
	C658.483582,711.308228 658.792419,719.747314 660.139832,727.994324 
	C662.106750,740.032288 664.622009,752.008728 667.548157,763.852051 
	C669.530762,771.876343 672.586243,779.638733 675.252625,787.487366 
	C675.638977,788.624695 676.533936,789.589233 677.193481,790.633728 
	C677.673950,790.484741 678.154358,790.335815 678.634766,790.186890 
	C677.259583,784.131897 675.909607,778.071106 674.504150,772.023132 
	C670.838806,756.249756 667.104187,740.511230 666.932129,724.159058 
	C666.852478,716.588379 666.055115,709.025269 665.533142,700.656494 
	C675.037354,703.049438 682.856018,706.500244 689.932678,711.929871 
	C700.172607,719.786682 708.646057,729.043579 712.129639,741.654602 
	C717.389709,760.696411 713.248779,777.891846 700.482727,793.053650 
	C689.672852,805.892212 676.318604,814.906128 660.425659,820.140991 
	C655.344055,821.814758 650.126648,823.076050 644.592346,824.723145 
z"/>
<path fill="#FFFFFF" opacity="1.000000" stroke="none" 
	d="
M348.000000,665.051514 
	C348.333374,683.433716 348.524597,701.327393 349.057922,719.210876 
	C349.340149,728.675415 350.217346,738.122253 350.841187,747.814270 
	C345.151062,745.838440 339.352295,744.403198 334.145996,741.788208 
	C331.276062,740.346741 328.340240,737.307251 327.264069,734.327271 
	C322.924561,722.310730 318.942047,710.136719 315.488678,697.835266 
	C309.985138,678.230713 305.009033,658.478088 299.865845,639.000122 
	C315.612457,639.000122 331.149445,639.000122 346.641479,639.000122 
	C347.109528,647.805969 347.554779,656.182312 348.000000,665.051514 
z"/>
<path fill="#D6CEC7" opacity="1.000000" stroke="none" 
	d="
M441.241821,741.677246 
	C432.313049,737.589478 429.904205,730.854370 434.961212,722.531250 
	C441.667603,711.493408 450.407440,702.120422 460.368591,693.880920 
	C462.795288,691.873657 464.961548,689.551575 467.471771,687.160706 
	C473.259460,693.626038 479.020782,700.061951 484.989105,706.729065 
	C481.536133,713.735474 477.945892,720.809387 474.558502,727.979126 
	C472.754639,731.797180 470.586609,735.651184 469.847809,739.718628 
	C468.536774,746.936401 463.746948,748.759155 457.653534,748.933044 
	C453.372223,749.055237 448.587738,750.424805 445.827942,745.061829 
	C445.101593,743.650391 443.008209,742.942444 441.241821,741.677246 
z"/>
<path fill="#D6CEC7" opacity="1.000000" stroke="none" 
	d="
M288.991852,431.512726 
	C302.336731,435.695770 305.911011,451.343292 297.886963,464.050201 
	C292.830383,472.057800 286.077423,478.262604 276.512878,481.126831 
	C269.123199,483.339813 263.167358,481.212860 258.174103,476.264435 
	C252.561218,470.702026 251.250687,463.611969 254.091492,456.283783 
	C258.594788,444.667053 265.846466,435.420929 278.479187,431.966675 
	C281.703857,431.084991 285.269318,431.449738 288.991852,431.512726 
z"/>
<path fill="#D6CEC7" opacity="1.000000" stroke="none" 
	d="
M243.910400,464.903839 
	C235.838608,464.263092 228.885941,462.061310 223.091064,456.657013 
	C216.320435,450.342682 215.423950,442.732422 218.280685,434.619324 
	C221.059387,426.727905 226.631317,420.618530 232.607559,414.881165 
	C237.246613,410.427551 252.495926,411.461884 256.444397,414.886780 
	C262.085632,419.780029 262.333954,430.961975 257.396027,437.286743 
	C253.229919,442.622894 249.562195,448.447510 246.432037,454.451233 
	C244.864655,457.457458 244.988892,461.345673 243.910400,464.903839 
z"/>
<path fill="#D6CEC7" opacity="1.000000" stroke="none" 
	d="
M186.200226,411.293335 
	C192.666428,400.692261 204.739151,395.938660 215.664780,400.177795 
	C218.811661,401.398773 221.579697,404.232117 223.853165,406.896484 
	C226.320297,409.787842 224.608337,412.592590 222.392899,415.172119 
	C217.843842,420.468750 212.935349,425.605591 211.609924,432.868347 
	C210.997833,436.222260 210.701157,439.643494 209.907806,442.949310 
	C209.634308,444.088989 208.439697,445.635773 207.410065,445.869446 
	C196.142914,448.426239 184.609421,441.895660 181.604614,431.025970 
	C179.647064,423.944702 182.483307,417.608704 186.200226,411.293335 
z"/>
<path fill="#D6CEC7" opacity="1.000000" stroke="none" 
	d="
M567.000000,720.307617 
	C567.751831,733.027893 568.503662,745.284058 569.274597,757.850830 
	C554.789185,754.548218 539.096252,750.970337 522.593811,747.207825 
	C523.743774,739.847900 524.856445,732.294617 526.205444,724.783752 
	C526.335632,724.058838 527.957336,723.053711 528.843567,723.095459 
	C540.911926,723.663818 552.055237,719.885559 563.211426,716.074036 
	C564.280090,715.708984 565.495605,715.773621 567.000000,715.596863 
	C567.000000,716.969727 567.000000,718.406616 567.000000,720.307617 
z"/>
<path fill="#D6CEC7" opacity="1.000000" stroke="none" 
	d="
M510.293762,720.964783 
	C521.290344,723.606689 521.302429,723.608093 519.981873,735.052734 
	C519.549744,738.798340 519.037109,742.534668 518.513367,746.651855 
	C502.934875,746.651855 487.094788,746.651855 470.329254,746.651855 
	C476.910736,734.406860 483.196381,722.712341 489.454315,711.069336 
	C496.417023,714.432922 503.148071,717.684631 510.293762,720.964783 
z"/>
<path fill="#D6CEC7" opacity="1.000000" stroke="none" 
	d="
M430.999878,715.843323 
	C429.999786,706.642761 428.773560,697.890137 428.143188,689.094788 
	C427.963043,686.581177 428.794250,683.328735 430.390564,681.471130 
	C436.824432,673.984009 443.739105,666.910034 450.889709,659.239929 
	C455.532684,667.311646 459.785370,674.704895 463.673187,681.463806 
	C452.721375,694.287903 442.024292,706.813782 431.343842,719.320190 
	C431.270111,718.667053 431.135071,717.471069 430.999878,715.843323 
z"/>
<path fill="#D6CEC7" opacity="1.000000" stroke="none" 
	d="
M171.461639,196.758301 
	C174.767960,197.701172 179.073151,197.577057 180.296280,199.457581 
	C181.843002,201.835602 180.907837,205.845078 180.990097,209.152206 
	C181.042877,211.274231 181.000000,213.398636 181.000000,216.020309 
	C166.301773,214.819794 151.799500,215.729706 138.497635,208.877945 
	C136.223328,207.706451 135.329529,206.422272 136.533508,203.869583 
	C139.782669,196.980606 142.876526,190.018372 145.955811,183.252640 
	C154.609146,187.841248 162.850479,192.211395 171.461639,196.758301 
z"/>
<path fill="#FED4CB" opacity="1.000000" stroke="none" 
	d="
M342.464417,344.821289 
	C332.963409,345.644562 323.825256,346.880554 314.718048,346.683594 
	C311.590515,346.615967 308.140015,343.345520 305.677887,340.742859 
	C304.846283,339.863770 305.894745,335.484344 307.317780,334.513947 
	C311.759369,331.485168 316.602020,328.812805 321.638489,326.943237 
	C328.944458,324.231110 336.620300,324.079407 344.252716,325.990814 
	C348.135803,326.963318 352.212616,328.317963 352.854095,332.725281 
	C353.600769,337.855652 349.354095,340.417725 345.773895,343.020996 
	C344.872253,343.676605 343.821594,344.127258 342.464417,344.821289 
z"/>
<path fill="#D6CEC7" opacity="1.000000" stroke="none" 
	d="
M438.997955,114.008736 
	C440.647736,110.815231 442.224060,107.990837 444.172180,104.500237 
	C453.523438,112.245209 462.396912,119.594475 471.814484,127.394356 
	C465.104370,132.760666 459.237885,137.740616 452.980896,142.168793 
	C451.953430,142.895966 448.255432,141.810638 447.422119,140.514633 
	C443.647308,134.643829 440.523315,128.358932 437.030670,122.300552 
	C435.094666,118.942352 437.925934,116.924942 438.997955,114.008736 
z"/>
<path fill="#D6CEC7" opacity="1.000000" stroke="none" 
	d="
M458.731720,163.383362 
	C456.471130,160.345444 457.054230,158.349899 459.454041,155.876343 
	C465.049469,150.108795 470.507294,144.152481 475.434418,137.816589 
	C477.680176,134.928635 478.932343,135.977737 480.233246,137.833557 
	C484.695374,144.198959 488.954651,150.706543 493.851379,157.993439 
	C483.609375,162.456924 474.305115,167.114716 464.558716,170.499191 
	C459.843933,172.136414 460.435486,166.375519 458.731720,163.383362 
z"/>
<path fill="#D6CEC7" opacity="1.000000" stroke="none" 
	d="
M485.744141,175.765961 
	C489.978027,172.375732 493.945343,169.235458 498.762238,165.422668 
	C502.211426,172.008530 505.697632,178.363083 508.729706,184.927414 
	C509.028625,185.574585 506.754700,188.338959 505.317474,188.700867 
	C498.549927,190.404922 491.687347,191.793015 484.798920,192.932587 
	C480.601318,193.627014 476.286102,193.579559 472.041412,194.031403 
	C469.358032,194.317047 467.460815,193.611542 467.075806,190.745316 
	C466.712830,188.043442 466.877045,185.793442 470.080444,184.320114 
	C475.367523,181.888428 480.360596,178.817429 485.744141,175.765961 
z"/>
<path fill="#D6CEC7" opacity="1.000000" stroke="none" 
	d="
M168.684479,162.296265 
	C173.836090,164.683945 178.629074,166.998032 183.561172,168.962906 
	C185.941452,169.911163 187.907761,170.650635 186.648560,173.735733 
	C186.462814,174.190811 186.151001,174.618576 186.069885,175.088715 
	C183.789429,188.309174 185.311966,185.343216 172.398514,182.835922 
	C166.743546,181.737946 161.383026,179.073990 155.932343,177.006348 
	C154.490677,176.459473 153.210663,175.486526 151.444153,174.472595 
	C154.817886,168.591141 157.940659,163.147171 161.147079,157.557404 
	C164.014206,159.349045 166.198639,160.714066 168.684479,162.296265 
z"/>
<path fill="#D6CEC7" opacity="1.000000" stroke="none" 
	d="
M437.794403,639.703003 
	C439.583099,637.790161 441.117676,636.143555 443.013458,634.109436 
	C445.033173,640.378906 446.864105,645.569580 448.308929,650.865601 
	C448.710785,652.338684 448.590088,654.839722 447.653503,655.651978 
	C440.380890,661.959412 432.849701,667.968689 426.343384,673.296631 
	C422.082214,663.881958 425.170593,652.344116 437.794403,639.703003 
z"/>
<path fill="#D6CEC7" opacity="1.000000" stroke="none" 
	d="
M172.770416,143.725220 
	C175.350891,140.345703 177.679520,137.227051 180.036514,134.070435 
	C184.548248,139.449493 188.873795,144.440201 192.945923,149.629730 
	C193.604019,150.468384 193.628525,152.488434 193.061447,153.429291 
	C192.368423,154.579086 190.762573,155.848236 189.516251,155.885406 
	C181.931168,156.111710 175.366714,153.145416 168.951096,148.946686 
	C170.301819,147.068497 171.410202,145.527313 172.770416,143.725220 
z"/>
<path fill="#D6CEC7" opacity="1.000000" stroke="none" 
	d="
M260.187195,407.909424 
	C258.152649,407.015930 256.523285,406.119019 254.395248,404.947601 
	C259.319885,403.830475 259.776215,404.095459 260.187195,407.909424 
z"/>
<path fill="#000000" opacity="1.000000" stroke="none" 
	d="
M309.224213,287.330933 
	C313.541260,285.697327 317.922302,287.464264 318.714844,291.629547 
	C319.403412,295.248627 319.170380,299.235474 318.391388,302.854614 
	C318.038910,304.492096 314.587646,307.104004 313.900391,306.736145 
	C311.303131,305.346039 307.666962,303.128448 307.359680,300.827850 
	C306.790833,296.568542 308.291565,292.032806 309.224213,287.330933 
z"/>
<path fill="#000000" opacity="1.000000" stroke="none" 
	d="
M344.050385,305.000000 
	C341.121765,305.142273 338.943970,305.092010 338.906586,301.593536 
	C338.866852,297.876404 338.088593,294.139771 338.320068,290.454803 
	C338.553162,286.744324 341.043030,285.439148 344.804047,285.939514 
	C348.597351,286.444183 349.137360,288.762268 349.023438,291.885040 
	C348.914368,294.875671 349.066498,297.875336 348.979126,300.867371 
	C348.896484,303.696655 347.733337,305.519531 344.050385,305.000000 
z"/>
</svg>
